<?xml version="1.0" encoding="utf-8"?>
<!-- Generator: Adobe Illustrator 22.0.0, SVG Export Plug-In . SVG Version: 6.00 Build 0)  -->
<svg version="1.1" id="Layer_1" xmlns="http://www.w3.org/2000/svg" xmlns:xlink="http://www.w3.org/1999/xlink" x="0px" y="0px"
	 viewBox="0 0 1920 1080" style="enable-background:new 0 0 1920 1080;" xml:space="preserve">
<style type="text/css">
	.st0{fill:#121212;stroke:#121214;stroke-width:1.366;stroke-linecap:round;stroke-miterlimit:10;}
	.st1{fill:#121212;stroke:#121214;stroke-width:0.7193;stroke-linecap:round;stroke-miterlimit:10;}
	.st2{fill:#121212;stroke:#121214;stroke-width:1.9292;stroke-linecap:round;stroke-miterlimit:10;}
	.st3{fill:#121212;stroke:#121214;stroke-width:1.8194;stroke-linecap:round;stroke-miterlimit:10;}
	.st4{fill:#121212;stroke:#121214;stroke-width:1.0533;stroke-linecap:round;stroke-miterlimit:10;}
	.st5{fill:none;stroke:#121214;stroke-width:1.262;stroke-linecap:round;stroke-linejoin:round;stroke-miterlimit:10;}
	.st6{fill:none;stroke:#121214;stroke-width:1.481;stroke-linecap:round;stroke-linejoin:round;stroke-miterlimit:10;}
	.st7{fill:none;stroke:#121214;stroke-width:0.8884;stroke-linecap:round;stroke-linejoin:round;stroke-miterlimit:10;}
</style>
<g>
	<g>
		<g>
			<line class="st0" x1="1294.6" y1="742.3" x2="1315.1" y2="762.8"/>
			<line class="st0" x1="1294.6" y1="762.8" x2="1315.1" y2="742.3"/>
		</g>
	</g>
	<g>
		<g>
			<line class="st1" x1="900.9" y1="270.6" x2="911.9" y2="281.6"/>
			<line class="st1" x1="900.9" y1="281.6" x2="911.9" y2="270.6"/>
		</g>
	</g>
	<g>
		<g>
			<line class="st2" x1="233" y1="412.3" x2="261.9" y2="441.5"/>
			<line class="st2" x1="233" y1="441.5" x2="261.9" y2="412.3"/>
		</g>
	</g>
	<g>
		<g>
			<line class="st3" x1="1657.7" y1="607.9" x2="1685" y2="635.2"/>
			<line class="st3" x1="1657.7" y1="635.2" x2="1685" y2="607.9"/>
		</g>
	</g>
	<g>
		<g>
			<line class="st4" x1="359.5" y1="852.6" x2="375.3" y2="868.3"/>
			<line class="st4" x1="359.5" y1="868.3" x2="375.3" y2="852.6"/>
		</g>
	</g>
	<g>
		<path class="st5" d="M612.3,144c0-8.9-7.1-16-16-16c-8.9,0-16,7.1-16,16s7.1,16,16,16C605.3,160,612.3,152.7,612.3,144z"/>
	</g>
	<g>
		<path class="st6" d="M1523.3,932.9c0-10.5-8.4-18.9-18.9-18.9c-10.5,0-18.9,8.4-18.9,18.9s8.4,18.9,18.9,18.9
			C1514.9,951.5,1523.3,943.1,1523.3,932.9z"/>
	</g>
	<g>
		<path class="st7" d="M1623.8,264.8c0-6.3-5-11.3-11.3-11.3s-11.3,5-11.3,11.3c0,6.3,5,11.3,11.3,11.3S1623.8,271.1,1623.8,264.8z"
			/>
	</g>
</g>
</svg>
