<?xml version="1.0" encoding="utf-8"?>
<!-- Generator: Adobe Illustrator 22.0.0, SVG Export Plug-In . SVG Version: 6.00 Build 0)  -->
<svg version="1.1" id="Layer_1" xmlns="http://www.w3.org/2000/svg" xmlns:xlink="http://www.w3.org/1999/xlink" x="0px" y="0px"
	 viewBox="0 0 119 16" style="enable-background:new 0 0 119 16;" xml:space="preserve">
<style type="text/css">
	.st0{fill:#FFFFFF;}
	.st1{fill:#1F1F1F;}
	.st2{fill:#FD951F;}
</style>
<path class="st0" d="M118.2,13.9l-2.1,2.1L102.3,2.2l2.1-2.1L118.2,13.9z"/>
<path class="st0" d="M116.1,0l2.1,2.1L104.4,16l-2.1-2.1L116.1,0z"/>
<path class="st1" d="M67.1,13.8L65,15.9L51.1,2.1L53.2,0L67.1,13.8z"/>
<path class="st1" d="M65,0.1l2.1,2.1L53.3,16l-2.1-2.1L65,0.1z"/>
<path class="st2" d="M15.9,13.9L13.8,16L0,2.2l2.1-2.1L15.9,13.9z"/>
<path class="st2" d="M13.8,0.1L16,2.2L2.1,16L0,13.9L13.8,0.1z"/>
</svg>
