<?xml version="1.0" encoding="utf-8"?>
<!-- Generator: Adobe Illustrator 22.0.0, SVG Export Plug-In . SVG Version: 6.00 Build 0)  -->
<svg version="1.1" id="Layer_1" xmlns="http://www.w3.org/2000/svg" xmlns:xlink="http://www.w3.org/1999/xlink" x="0px" y="0px"
	 viewBox="0 0 119 16" style="enable-background:new 0 0 119 16;" xml:space="preserve">
<style type="text/css">
	.st0{fill:#FFFFFF;}
	.st1{fill:#1F1F1F;}
	.st2{fill:#FD951F;}
</style>
<path class="st0" d="M0,13.9L2.1,16L15.9,2.2L13.8,0L0,13.9z"/>
<path class="st0" d="M2.1,0L0,2.2L13.8,16l2.1-2.1L2.1,0z"/>
<path class="st1" d="M51.1,13.8l2.1,2.1L67.1,2.1L65,0L51.1,13.8z"/>
<path class="st1" d="M53.2,0.1l-2.1,2.1L64.9,16l2.1-2.1L53.2,0.1z"/>
<path class="st2" d="M102.3,13.9l2.1,2.1l13.8-13.8l-2.1-2.1L102.3,13.9z"/>
<path class="st2" d="M104.4,0.1l-2.1,2.1L116.1,16l2.1-2.1L104.4,0.1z"/>
</svg>
