<?xml version="1.0" encoding="utf-8"?>
<!-- Generator: Adobe Illustrator 22.0.0, SVG Export Plug-In . SVG Version: 6.00 Build 0)  -->
<svg version="1.1" id="a594ac37-6d44-4297-8862-1cbd9c01c0b7"
	 xmlns="http://www.w3.org/2000/svg" xmlns:xlink="http://www.w3.org/1999/xlink" x="0px" y="0px" viewBox="0 0 1126.2 855"
	 style="enable-background:new 0 0 1126.2 855;" xml:space="preserve">
<style type="text/css">
	.st0{fill:#F2F2F2;}
	.st1{fill:#3F3D56;}
	.st2{opacity:0.1;enable-background:new    ;}
	.st3{fill:#FD951F;}
	.st4{fill:#2F2E41;}
	.st5{fill:#FBBEBE;}
</style>
<title>code review</title>
<path class="st0" d="M581.3,755.9c242.4-18.4,531.5-206.3,516.8-399.7C1083.4,162.9,803.4-17.1,561,1.3S179.1,381.2,193.8,574.6
	S338.9,774.4,581.3,755.9z"/>
<ellipse class="st1" cx="561" cy="756" rx="506" ry="31"/>
<ellipse class="st2" cx="561" cy="755.5" rx="431" ry="20.5"/>
<ellipse class="st1" cx="914" cy="836.5" rx="212.2" ry="18.5"/>
<ellipse class="st2" cx="914" cy="836.2" rx="180.7" ry="12.2"/>
<rect x="178" y="162" class="st1" width="752" height="590"/>
<path class="st0" d="M562.6,242.6h185.5c1.2,0,2.3-1,2.3-2.2c0-1.2-1-2.3-2.2-2.3c0,0,0,0,0,0H562.6c-1.2,0-2.2,1-2.2,2.3
	C560.3,241.6,561.3,242.6,562.6,242.6z"/>
<path class="st0" d="M359.5,267.4h291.8c1.2,0,2.3-1,2.3-2.3s-1-2.3-2.3-2.3l0,0H359.5c-1.2,0-2.3,1-2.3,2.3
	S358.2,267.4,359.5,267.4z"/>
<path class="st0" d="M561.7,292.2h185.5c1.2,0,2.3-1,2.3-2.3s-1-2.3-2.3-2.3H561.7c-1.2,0-2.3,1-2.3,2.3S560.4,292.2,561.7,292.2z"
	/>
<path class="st0" d="M359.5,292.6H545c1.2,0,2.3-1,2.3-2.3s-1-2.3-2.3-2.3H359.5c-1.2,0-2.3,1-2.3,2.3S358.2,292.6,359.5,292.6z"/>
<path class="st0" d="M561.2,316.9h185.5c1.2,0,2.3-1,2.3-2.3s-1-2.3-2.3-2.3H561.2c-1.2,0-2.3,1-2.3,2.3S560,316.9,561.2,316.9z"/>
<path class="st0" d="M560.8,341.7h185.5c1.2,0,2.3-1,2.3-2.3s-1-2.3-2.3-2.3H560.8c-1.2,0-2.3,1-2.3,2.3S559.5,341.7,560.8,341.7z"
	/>
<path class="st0" d="M476.6,243.1h53.1c1.2,0,2.3-1,2.3-2.3s-1-2.3-2.3-2.3l0,0h-53.1c-1.2,0-2.3,1-2.3,2.3S475.3,243.1,476.6,243.1
	z"/>
<path class="st0" d="M476.6,316.9h53.1c1.2,0,2.3-1,2.3-2.3s-1-2.3-2.3-2.3l0,0h-53.1c-1.2,0-2.3,1-2.3,2.3S475.3,316.9,476.6,316.9
	z"/>
<path class="st0" d="M476.6,341.2h53.1c1.2,0,2.3-1,2.3-2.2c0-1.2-1-2.3-2.2-2.3c0,0,0,0,0,0h-53.1c-1.2,0-2.3,1-2.3,2.2
	C474.3,340.2,475.3,341.2,476.6,341.2C476.5,341.2,476.5,341.2,476.6,341.2z"/>
<path class="st0" d="M387.4,341.2h53.1c1.2,0,2.2-1,2.2-2.3c0-1.2-1-2.2-2.2-2.2h-53.1c-1.2,0-2.3,1-2.3,2.2
	C385.1,340.2,386.1,341.2,387.4,341.2C387.4,341.2,387.4,341.2,387.4,341.2z"/>
<path class="st0" d="M695.4,267.4h53.1c1.2,0,2.3-1,2.3-2.3s-1-2.3-2.3-2.3l0,0h-53.1c-1.2,0-2.3,1-2.3,2.3S694.1,267.4,695.4,267.4
	z"/>
<path class="st0" d="M562.3,607.4h185.5c1.2,0,2.3-1,2.3-2.3c0-1.2-1-2.3-2.3-2.3l0,0H562.3c-1.2,0-2.3,1-2.3,2.3
	C560.1,606.4,561.1,607.4,562.3,607.4z"/>
<path class="st0" d="M563.2,656.9h185.5c1.2,0,2.3-1,2.3-2.3c0-1.2-1-2.3-2.3-2.3l0,0H563.2c-1.2,0-2.3,1-2.3,2.3
	C561,655.9,562,656.9,563.2,656.9z"/>
<path class="st0" d="M562.8,681.7h185.5c1.2,0,2.3-1,2.3-2.3c0-1.2-1-2.3-2.3-2.3l0,0H562.8c-1.2,0-2.3,1-2.3,2.3
	C560.5,680.6,561.5,681.7,562.8,681.7z"/>
<path class="st0" d="M483.5,657.3h53.1c1.2,0,2.3-1,2.3-2.3c0-1.2-1-2.3-2.3-2.3h-53.1c-1.2,0-2.3,1-2.3,2.3
	C481.3,656.3,482.3,657.3,483.5,657.3L483.5,657.3z"/>
<path class="st0" d="M483.5,681.7h53.1c1.2,0,2.3-1,2.3-2.3c0-1.2-1-2.3-2.3-2.3h-53.1c-1.2,0-2.3,1-2.3,2.3
	C481.3,680.6,482.3,681.7,483.5,681.7L483.5,681.7z"/>
<path class="st0" d="M394.4,657.3h53.1c1.2,0,2.3-1,2.3-2.3c0-1.2-1-2.3-2.3-2.3h-53.1c-1.2,0-2.3,1-2.3,2.3
	C392.1,656.3,393.1,657.3,394.4,657.3z"/>
<path class="st0" d="M359.3,632.1H651c1.2,0,2.3-1,2.3-2.3c0-1.2-1-2.3-2.3-2.3H359.3c-1.2,0-2.3,1-2.3,2.3
	C357,631.1,358,632.1,359.3,632.1z"/>
<path class="st0" d="M695.2,632.1h53.1c1.2,0,2.3-1,2.3-2.3c0-1.2-1-2.3-2.3-2.3l0,0h-53.1c-1.2,0-2.3,1-2.3,2.3
	C692.9,631.1,693.9,632.1,695.2,632.1z"/>
<path class="st0" d="M359.3,706.9H651c1.2,0,2.3-1,2.3-2.3c0-1.2-1-2.3-2.3-2.3H359.3c-1.2,0-2.3,1-2.3,2.3
	C357,705.9,358,706.9,359.3,706.9L359.3,706.9z"/>
<path class="st0" d="M695.2,706.9h53.1c1.2,0,2.3-1,2.3-2.3c0-1.2-1-2.3-2.3-2.3l0,0h-53.1c-1.2,0-2.3,1-2.3,2.3
	C692.9,705.9,693.9,706.9,695.2,706.9z"/>
<polygon class="st3" points="607.1,401.1 679.2,472.3 607.1,543.4 590.9,527.2 645.4,472.7 590.5,417.8 "/>
<polygon class="st3" points="500.9,401.1 428.8,472.3 500.9,543.4 517.1,527.2 462.6,472.7 517.5,417.8 "/>
<circle class="st3" cx="910" cy="177" r="9"/>
<circle class="st3" cx="886" cy="177" r="9"/>
<circle class="st3" cx="862" cy="177" r="9"/>
<rect x="178" y="192" class="st2" width="752" height="3"/>
<path class="st0" d="M0,607.5c0,63.8,37.9,86,84.7,86s84.7-22.3,84.7-86S84.7,462.6,84.7,462.6S0,543.7,0,607.5z"/>
<polygon class="st1" points="87.8,683.7 86.9,630.4 50.8,564.3 86.8,622 86.4,598 61.5,550.2 86.3,591.6 86.3,591.6 85.6,548.5 
	58.9,510.5 85.5,541.7 85,462.6 87.8,567.3 87.5,563 114.6,521.6 88,571.3 90.5,619.5 90.6,618.2 121.8,574.6 90.7,622.7 91,628.8 
	91,628.9 91,629.4 97.4,751.7 88.9,751.7 87.8,688.5 56.8,640.5 "/>
<path class="st4" d="M1003.6,751.1c2.6,1.4,5.3,2.6,8.2,3.5c5.1,1.4,10.5,0.9,15.6,2.1c2.1,0.5,4.4,1.5,5.1,3.5
	c0.5,1.5,0,3.1-0.6,4.6c-5.7,16.6-9.1,34.3-18.1,49.3c-3.8,6.3-8.5,12-14,17c-2.1,1.9-4.4,3.7-7.1,4c-4,0.4-7.5-2.5-8-6.4
	c-0.1-1.3,0.1-2.6,0.6-3.7c0.8-1.8,2.3-3.2,3.3-4.9c1.1-2.2,1.7-4.6,1.8-7c0.9-7.1,1.8-14.5-0.7-21.3c-1.7-4.5-4.7-8.4-7.2-12.4
	c-2.5-4.1-4.6-8.8-4.1-13.5c0.4-3.3,2-6.2,3.7-9.1c1.7-2.8,5-10.4,8.4-11.4C993.9,744.4,1000.5,749.5,1003.6,751.1z"/>
<path class="st4" d="M911.1,808.5c-0.1,1.6,0.2,3.2,0.7,4.7c1.1,2.8,3.7,4.7,5,7.4c1.9,3.7,1,8.2-0.2,12.1c-0.8,2.5-1.8,5.1-3.9,6.6
	c-1.8,1.1-3.8,1.8-6,1.9c-18,2.5-36.4,1.1-54.6,1.6c-3.3,0.1-6.8,0.2-9.7-1.4c-2.9-1.6-4.7-5.7-2.7-8.4c1.8-2.4,5.3-2.4,8.2-2.5
	c7.8-0.4,15.1-3.4,20.9-8.6c1.1-1,2.1-2.1,2.9-3.4c0.6-1.1,1.1-2.3,1.5-3.5c2.6-6.9,5.6-13.6,9.1-20.1c1-1.8,2.1-3.7,3.9-4.7
	c1.3-0.6,2.8-0.9,4.2-0.9c4.5-0.3,16.3-1.8,19.8,1.7C913.6,794.3,911.1,804.4,911.1,808.5z"/>
<ellipse transform="matrix(0.9975 -7.088905e-02 7.088905e-02 0.9975 -24.4833 63.5586)" class="st5" cx="883.2" cy="376.7" rx="29" ry="29"/>
<path class="st5" d="M909.4,400.6c1.7,4.6,4.6,8.9,8.9,11.4l-40.1,8.2c1.5-5.8,1.6-11.9,0.6-17.9c-0.4-1.4-0.5-2.9-0.2-4.4
	c0.8-2.9,4-4.3,7-5c7.3-1.7,13.8-2.6,20.6-5.8C908.1,390.8,907.9,396.5,909.4,400.6z"/>
<path class="st4" d="M918.6,401.2c-8.7-4-18.8-3.7-27.3,0.7c-5.1,2.7-9.4,6.8-13.6,10.8c-3.9,3.7-8,8-8.2,13.3
	c-0.1,2.6,0.7,5.1,1.1,7.7c1.5,10.9-4,21.5-13.8,26.5c-3.2,5.3-3.8,11.7-3.9,17.9c-0.2,23.4,7.2,47.2,1.9,70
	c-1.2,5.4-3.2,10.6-4.2,16c-1.4,7-1.3,14.2-2,21.3c-0.8,7.7-2.5,15.2-5.1,22.5c1.7,2.8,5.4,3.8,8.6,3.6c3.3-0.2,6.3-1.6,9.2-3.1
	c14.1-7.2,27.1-16.8,41.7-22.9c9.7-4.1,20-6.6,29.4-11.3s18.1-12.1,21-22.2c1.2-4.4,1.3-9,1.4-13.5c0.3-19.1,0.6-38.4-3.6-57.1
	c-3.7-16.5-10.7-32.2-12.3-49c-0.5-5.5-0.5-11.3-3.6-15.9C931,410,921.7,408.4,918.6,401.2z"/>
<path class="st4" d="M899.7,377.1c-1.7-2.2-5-2.5-7.7-1.9s-5.2,2.1-8,2.6c-1.3,0.4-2.6,0.2-3.7-0.5c-1-0.9-1.5-2.2-1.6-3.6
	c-1-5.7-1.2-11.6-0.7-17.4c0.1-0.8,0.1-1.6-0.2-2.4c-0.7-1.6-2.8-2-4.5-2.6c-5.8-1.9-9.5-7.6-9-13.6c0-1.4,0.6-2.8,1.7-3.7
	c1.2-1,2.8-1,4.3-1c7.8-0.1,15.6-0.1,23.4,0c2.9,0,5.9,0.1,8.4,1.5c1.8,1.1,3.2,2.8,4.9,4.1c4.3,3.5,10.2,4.2,15.4,6
	c2.6,0.7,4.9,2.1,6.8,4c1.8,2,2.6,5,1.5,7.4c-0.6,1-1.2,2-1.9,2.9c-3.1,5-1,11.4-1.5,17.2c-0.6,7.3-11.4,19.1-18.7,20.8
	C896.8,399.8,903.6,381.9,899.7,377.1z"/>
<path class="st4" d="M916.1,696.7c-0.7,5.3-1.7,10.7-1.4,16c0.4,7.5,3.1,14.7,3.6,22.2c0.4,5.6-0.5,11.2,0.3,16.8
	c0.5,3.6,1.7,7,2.4,10.5c2.3,11.6-0.2,23.6-7,33.3c-0.5,0.8-1.2,1.5-2,2c-0.8,0.3-1.7,0.4-2.5,0.3c-8.4-0.2-16.8-0.9-25.2-2.3
	c-0.6,0-1.2-0.3-1.6-0.7c-0.2-0.3-0.3-0.6-0.4-1c-1.5-7.9,2-15.9,2.9-23.9c1-8.6-1.1-17.2-3.1-25.6c-0.9-4.1-2.1-8.2-3.5-12.2
	c-1-2.7-2.2-5.3-3-8.1c-1.2-4.3-2-8.7-2.2-13.2c-0.6-7.1-0.9-14.1-0.9-21.2c-0.2-6.7,0.4-13.4,1.7-20c1.9-8.3,5.7-16.1,9.5-23.7
	c2,0.5,4,1.4,5.6,2.7c4.9,3.2,10,6,15.4,8.5c3.6,1.7,10.5,2.8,12.8,6.3c2.2,3.4,0.8,10.4,0.6,14.1
	C917.5,683.9,917,690.3,916.1,696.7z"/>
<path class="st2" d="M916.1,696.7c-0.7,5.3-1.7,10.7-1.4,16c0.4,7.5,3.1,14.7,3.6,22.2c0.4,5.6-0.5,11.2,0.3,16.8
	c0.5,3.6,1.7,7,2.4,10.5c2.3,11.6-0.2,23.6-7,33.3c-0.5,0.8-1.2,1.5-2,2c-0.8,0.3-1.7,0.4-2.5,0.3c-8.4-0.2-16.8-0.9-25.2-2.3
	c-0.6,0-1.2-0.3-1.6-0.7c-0.2-0.3-0.3-0.6-0.4-1c-1.5-7.9,2-15.9,2.9-23.9c1-8.6-1.1-17.2-3.1-25.6c-0.9-4.1-2.1-8.2-3.5-12.2
	c-1-2.7-2.2-5.3-3-8.1c-1.2-4.3-2-8.7-2.2-13.2c-0.6-7.1-0.9-14.1-0.9-21.2c-0.2-6.7,0.4-13.4,1.7-20c1.9-8.3,5.7-16.1,9.5-23.7
	c2,0.5,4,1.4,5.6,2.7c4.9,3.2,10,6,15.4,8.5c3.6,1.7,10.5,2.8,12.8,6.3c2.2,3.4,0.8,10.4,0.6,14.1
	C917.5,683.9,917,690.3,916.1,696.7z"/>
<path class="st4" d="M955.2,583c3.8,10.4-1.8,21.6-6.7,31.5c-12.1,24.4-20.5,50.4-28.9,76.3c-0.6,1.9-1.3,4.1-0.6,6
	c0.6,1.4,1.6,2.5,2.8,3.3c5.8,4.4,13.1,5.9,20,8.2c6.6,2.2,13,5.2,18.9,8.9c5,3.1,9.6,6.6,14.3,10.2l14.8,11.3
	c1,0.6,1.8,1.5,2.5,2.4c1.4,2.2,0.8,5.2,0.1,7.7c-1.9,6.8-4.3,13.4-7.3,19.8c-0.5,1.4-1.4,2.6-2.6,3.4c-2.3,1.2-5.1-0.4-6.9-2.3
	s-3.3-4.4-5.8-5.2c-2.5-0.8-5.2,0.2-7.8-0.2c-4.2-0.6-7-4.5-10-7.4c-12.4-12.1-33-11.3-46.6-22c-2-1.8-4-3.4-6.2-4.9
	c-2.3-1.4-4.9-2.1-7.3-3.3c-7.3-3.7-11.8-11.2-14.3-19s-3.1-15.9-4.9-23.9c-0.9-4.1-2.1-8.2-2.5-12.3c-0.3-3.9-0.2-7.8,0.3-11.7
	l4.9-60.7c0.4-4.9,0.8-9.9,1.6-14.8c14.6,0.5,29.1,1.1,43.7,1.3C932.4,585.9,944.2,586.7,955.2,583z"/>
<path class="st4" d="M960.6,597.2c-2,3.2-6.8,3.1-10.1,1.4s-5.9-4.7-9.2-6.4c-4.5-2.3-9.7-2.2-14.8-2.1c-8,0.2-16,0.5-23.7,2.6
	c-7.9,2.3-15.6,6.6-23.8,5.7c-1.4-0.2-3-0.6-3.8-1.8c-0.5-0.9-0.7-1.9-0.6-2.8l-0.3-7.2c-0.2-1.2,0-2.5,0.6-3.6
	c0.7-0.9,1.6-1.7,2.7-2.1c11.7-5.6,25-6.7,37.9-7.1c6.6-0.2,13.2-0.3,19.8-0.3c5.6,0,12.3-0.8,17.7,0.7
	C960.3,576.3,964.3,591.3,960.6,597.2z"/>
<path class="st3" d="M887.4,409.7c15.3-0.1,29.1-10.2,44.4-10.5c1.8-0.1,3.7,0.2,5.4,0.9c2.1,1.1,3.5,3.1,5.1,4.9
	c4.5,4.9,11.1,7.5,15.7,12.3c4.4,4.5,6.8,11.1,5.1,17.2c-1.7,6-8.2,10.6-14.3,9.2c-2.4-7.9-7.5-14.8-14.3-19.5
	c-3.6-2.3-7.3-4.2-11.2-5.9c-6.9-3.1-14.5-6.3-21.7-4c-2.6,1-5.1,2.4-7.4,4l-12,8C883.6,421,884.8,414.8,887.4,409.7z"/>
<path class="st3" d="M950.5,438.4c2,2.5-0.9,6.2-0.4,9.4c0.3,2.1,2.1,3.8,2.8,5.8c0.8,2.1,0.4,4.4,0.6,6.6c0.3,1.6,0.7,3.2,1.3,4.7
	c1.3,4.6,2.2,9.3,2.7,14l2.7,20c0.5,3,0.7,6,0.8,9.1c-0.1,2.3,0,4.6,0.5,6.8c0.6,2.2,1.9,4.1,2.8,6.2c0.9,2.1,1.3,4.6,0.1,6.5
	c4,3.3,5.2,9.9,2.4,14.2c-0.5,0.7-0.9,1.4-1.2,2.3c-0.2,1.1,0,2.3,0.5,3.3l2.7,7.2c0.7,1.8,0.9,4.7-1,5.1c1.6,1.7,2.8,3.6,3.7,5.8
	c0.8,2.2,0.4,4.6-1,6.5c-0.7,0.6-1.2,1.3-1.7,2.1c-0.3,1.1-0.2,2.2,0.2,3.2c0.8,3.2,0.3,6.6-1.5,9.3c-1.8,2.8-5.1,4.2-8.4,3.6
	c-5.4-1.2-10.3-3.1-15.7-2.1c-11.7,2.2-23.5,4.3-34.9,8c-13,4.1-25.6,10.2-39.1,11.5c-0.9,0.2-1.8,0-2.6-0.4
	c-0.7-0.7-1.1-1.5-1.2-2.5c-1.4-6.6-2.8-13.1-4.2-19.7c-1.7-7.3-3-14.6-3.9-22c-0.5-4.8-0.6-9.6-0.7-14.4l-1.1-38.2
	c-0.5-5.6,0.2-11.3,2.2-16.6l6.2-19.8c3.5-11.3,11.7-21.4,14.6-32.9c1.8-7.3,3.2-15.1,8.1-20.8c7-8.1,19.1-9.4,29.8-8
	c4.8,0.6,9.6,1.7,13.8,4.2c4.8,2.9,8.3,7.4,11.8,11.8C944.8,431.8,947.7,434.8,950.5,438.4z"/>
<path class="st5" d="M925.7,550.8c-0.9,3.8-2.7,7.3-3.8,11c-1.9,6.2-1.7,12.9-3.6,19.1c-0.8,2.6-1.9,5.1-2.5,7.8
	c-1.3,6.2,0.6,12.6,3,18.5c2.4,5.9,5.3,11.7,6.1,18c0.5,4.4-0.2,9.5-3.7,12.3c-3.6,3-8.7,2.8-13.3,2.4c-1.7,0-3.3-0.4-4.8-1
	c-3.5-1.7-5-5.9-5.9-9.7c-2.8-12.8-2-26.1-1.2-39.2l2.1-34.2c0.4-6.6,0.8-13.3,2.9-19.6c0.7-2.3,2-7,4.1-8.4c2.1-1.5,8-1.5,10.6-1.6
	C927.8,525.5,927.7,542.4,925.7,550.8z"/>
<path class="st4" d="M912.3,424.4c2.5-1.3,5.6-0.7,8,0.7c2.3,1.6,4.3,3.5,6,5.8c5.3,6.5,11,14,10.2,22.4c-0.3,3.1-1.5,6.1-2.3,9.2
	c-3.6,13.4,0.4,27.5-0.1,41.4c-0.3,8-2,15.9-3.7,23.7c-0.4,1.6-0.9,3.4-2.5,4c-1.2,0.4-2.4-0.1-3.6-0.6c-8.7-3.2-18.4-2-26,3.3
	c-2.9-1.5-1.8-6.4-1.1-9.5c1.9-9.5-0.7-19.2-3.8-28.3c-3.1-9.1-6.9-18.2-7.4-27.9c-0.6-10.9,3-21.6,6.6-31.9
	c0.8-2.3,1.6-4.6,3.4-6.2c1.5-1.2,3.3-2,5.2-2.4C905,426.9,908.8,426.3,912.3,424.4z"/>
</svg>
