<?xml version="1.0" encoding="utf-8"?>
<!-- Generator: Adobe Illustrator 22.0.0, SVG Export Plug-In . SVG Version: 6.00 Build 0)  -->
<svg version="1.1" id="Layer_1" xmlns="http://www.w3.org/2000/svg" xmlns:xlink="http://www.w3.org/1999/xlink" x="0px" y="0px"
	 viewBox="0 0 750 470" style="enable-background:new 0 0 750 470;" xml:space="preserve">
<style type="text/css">
	.st0{opacity:0.1;fill:#FD951F;enable-background:new    ;}
	.st1{fill:#D0D2D5;}
	.st2{opacity:0.1;enable-background:new    ;}
	.st3{fill:#3F3D56;}
	.st4{fill:#FFFFFF;}
	.st5{fill:#FD951F;}
	.st6{opacity:0.1;fill:#444053;enable-background:new    ;}
	.st7{opacity:0.3;fill:#FD951F;enable-background:new    ;}
	.st8{opacity:0.8;fill:#FA5959;enable-background:new    ;}
	.st9{opacity:0.8;fill:#FED253;enable-background:new    ;}
	.st10{opacity:0.8;fill:#8CCF4D;enable-background:new    ;}
	.st11{fill:url(#SVGID_1_);}
	.st12{fill:#2F2E41;}
	.st13{fill:#454B69;}
	.st14{fill:#FBBEBE;}
	.st15{opacity:0.1;}
</style>
<ellipse class="st0" cx="375.3" cy="384.7" rx="273.7" ry="22.9"/>
<ellipse class="st0" cx="470" cy="451.3" rx="74.1" ry="13.9"/>
<polygon class="st1" points="431.2,385.4 316.5,383.8 316.8,380.7 322.4,328.4 423.1,328.4 430.5,380.7 431.1,384.6 "/>
<polygon class="st2" points="431.1,384.6 373.8,384.6 316.5,383.8 316.8,380.7 430.5,380.7 "/>
<rect x="297.3" y="381.5" class="st1" width="152.3" height="4"/>
<path class="st3" d="M594.9,14.3c0-5.7-4.2-10.3-9.5-10.4H160.1c-5.3,0-9.6,4.7-9.5,10.4c0,0,0,0,0,0v277.7h444.3V14.3z"/>
<path class="st1" d="M150.6,289.2v32.5c0,5.7,4.3,10.3,9.5,10.3h425.2c5.3,0,9.5-4.6,9.5-10.3v-32.5H150.6z"/>
<rect x="169" y="21.3" class="st4" width="409.7" height="249.6"/>
<path class="st5" d="M374.9,319.6c3,0,5.9-1.5,7.8-4.1l0,0c0.3-0.4,0.5-0.8,0.8-1.2l-5.5-1l5.9,0c1.1-2.7,1.2-5.7,0.2-8.5l-7.9,4.4
	l7.3-5.8c-2.8-5.1-8.8-6.8-13.6-3.9c-4.7,3-6.3,9.5-3.6,14.6c0.2,0.4,0.5,0.8,0.8,1.2l0,0C369,318.1,371.9,319.6,374.9,319.6z"/>
<polygon class="st2" points="384.9,331.9 430.7,381.5 423.6,331.9 "/>
<rect x="168.7" y="21.4" class="st6" width="410.2" height="14.6"/>
<path class="st7" d="M311.4,23.9h122.8c0.2,0,0.4,0.2,0.4,0.4v8.1c0,0.2-0.2,0.4-0.4,0.4H311.4c-0.2,0-0.4-0.2-0.4-0.4v-8.1
	C311.1,24.1,311.2,23.9,311.4,23.9z"/>
<path class="st3" d="M431,29.2h-0.3l-0.1-0.1c0.4-0.5,0.6-1.1,0.6-1.7c0-1.4-1.1-2.6-2.5-2.6c-1.3,0-2.4,1.2-2.4,2.6
	c0,1.4,1.1,2.6,2.4,2.6c0.6,0,1.2-0.2,1.6-0.6l0.1,0.1v0.3l1.9,2l0.6-0.6L431,29.2z M428.7,29.2c-0.9,0-1.7-0.8-1.7-1.8
	c0-1,0.8-1.8,1.7-1.8c0.9,0,1.7,0.8,1.7,1.8c0,0,0,0,0,0C430.4,28.4,429.7,29.2,428.7,29.2C428.7,29.2,428.7,29.2,428.7,29.2
	L428.7,29.2z"/>
<ellipse class="st8" cx="176" cy="28.6" rx="2.5" ry="2.7"/>
<ellipse class="st9" cx="182.9" cy="28.6" rx="2.5" ry="2.7"/>
<ellipse class="st10" cx="189.7" cy="28.6" rx="2.5" ry="2.7"/>
<path class="st5" d="M395.5,128.4c-5.6-8-13.8-13.1-22.8-13.1c-9.1,0-17.2,5.1-22.8,13.1c1.2,3.3,3.1,6.3,5.4,8.8
	c9.6,10.4,25.2,10.4,34.9,0C392.5,134.7,394.3,131.7,395.5,128.4z"/>
<path class="st5" d="M346.9,133.1c-0.4-0.2-0.8-0.4-1.1-0.7c-0.5-0.5-1-1.1-1.2-1.7c1.1-2.5,0.2-5.5-2.1-6.7
	c-2.3-1.2-5.1-0.2-6.2,2.3c-0.8,1.8-0.5,4.1,0.8,5.6c0.3,0.4,0.7,0.7,1.1,1c0.5,0.3,1,0.8,1.2,1.4c0.5,1.1,1.3,2.2,2.1,3
	c0.9,0.8,1.9,1.6,2.9,2.2c-1.4,4.4-2.2,8.9-2.4,13.6c-1.7,0-3.3,0.3-4.9,0.9c-0.8,0.3-1.6,0.7-2.3,1.2c-0.2,0-0.4,0-0.6,0
	c-2.6,0-4.6,2.2-4.6,5c0,2.8,2.1,5,4.6,5c1.9,0,3.7-1.3,4.3-3.2c0.4-1.1,1.3-1.9,2.4-2.1c0.4-0.1,0.8-0.1,1.2-0.1
	c0.6,6.5,2.4,12.8,5.5,18.5c-2.7,2.3-4.4,4.8-5.1,7.5c-0.1,0.1-0.3,0.2-0.4,0.3c-0.2,0.2-0.4,0.3-0.5,0.5c-1.7,2-1.6,5.2,0.3,7
	c1.9,1.9,4.8,1.7,6.5-0.3c1.2-1.4,1.5-3.3,0.9-5.1c-0.4-1.2-0.1-2.6,0.8-3.5c0.3-0.3,0.6-0.6,1.1-1c5.2,6.6,11.4,10.8,19.2,11.3
	v-44.6C360.2,149.7,351.2,142.5,346.9,133.1z M411.2,155.1c-0.2,0-0.4,0-0.6,0c-0.7-0.5-1.5-0.9-2.3-1.2c-1.6-0.5-3.2-0.8-4.9-0.9
	c-0.2-4.6-1-9.2-2.4-13.6c1-0.6,2-1.4,2.9-2.2c0.9-0.9,1.7-2,2.2-3.2c0.3-0.5,0.7-0.9,1.1-1.2l0,0c2.2-1.3,3-4.4,1.8-6.8
	c-1.3-2.4-4.1-3.2-6.3-1.9c-2.1,1.3-3,4.1-1.9,6.5c-0.3,0.7-0.7,1.3-1.2,1.7c-0.4,0.3-0.7,0.6-1.1,0.9c-4.3,9.4-13.2,16.4-23.5,17
	V195c7.7-0.5,14-4.7,19.2-11.3c0.4,0.3,0.7,0.7,1,1c0.9,0.9,1.2,2.4,0.8,3.6c-0.9,2.6,0.4,5.4,2.7,6.4c2.4,0.9,5.1-0.4,5.9-3
	c0.6-1.7,0.2-3.7-0.9-5c-0.2-0.2-0.3-0.4-0.5-0.5c-0.2-0.2-0.4-0.3-0.4-0.3c-0.7-2.8-2.4-5.3-5.2-7.5c3.1-5.7,5-12,5.5-18.5
	c0.4,0,0.8,0,1.1,0.1c1.1,0.2,2.1,1,2.5,2.1c0.9,2.6,3.6,3.8,6,2.8c1.7-0.7,2.8-2.4,2.9-4.3c0.1-2.8-1.9-5.2-4.4-5.3
	C411.3,155.1,411.3,155.1,411.2,155.1z"/>
<linearGradient id="SVGID_1_" gradientUnits="userSpaceOnUse" x1="531.2492" y1="-48.5552" x2="531.2492" y2="179.1454" gradientTransform="matrix(0.9992 -4.030618e-02 -4.030618e-02 -0.9992 -71.4267 430.7401)">
	<stop  offset="0" style="stop-color:#808080;stop-opacity:0.25"/>
	<stop  offset="0.54" style="stop-color:#808080;stop-opacity:0.12"/>
	<stop  offset="1" style="stop-color:#808080;stop-opacity:0.1"/>
</linearGradient>
<path class="st11" d="M512.1,443.3c-0.4-0.6-0.8-1.2-1.4-1.7c-2.8-2.9-4.1-7.1-4.8-11.2c-0.7-4.1-0.9-8.3-2-12.4
	c-0.6-2.1-1.4-4.1-2.3-6c-0.6-1.5-1.5-4.4-2.6-5.4c-0.2-0.2-0.5-0.4-0.8-0.4c-0.6-1.3-1.4-2.4-2.3-3.3c-1.8-1.8-4.1-3.2-5.3-5.5
	c-0.3-0.8-0.8-1.6-1.2-2.3c-0.8-1-2.1-1.4-2.9-2.4c-1-1.3-0.8-3.3-0.6-5c0.1-1.7,0-3.8-1.4-4.7c-0.8-0.5-1.9-0.5-2.7-1
	c-1.3-0.7-1.8-2.4-1.8-4c0-1.6,0.5-3.1,0.6-4.6c0.4-5-2.7-9.9-1.5-14.7c0.4-1.8,1.5-3.4,2.2-5.1c0.3-0.6,0.5-1.2,0.6-1.8
	c2,0.9,4.1,1.4,6.3,1.6c-3.5-8.6-2.6-18.5-4.3-27.7l0.2-0.3c1.7-2.4,2.6-5.2,2.7-8.2c0-3.4-1.5-6.6-2.2-10c-0.6-2.9-0.5-5.8-1.3-8.6
	c-0.5-1.7-1.2-3.4-2-5c-0.8-1.6-1.6-3.2-2.5-4.7c-0.8-2.9-1.7-5.9-2.5-8.8c-1.2-4.1-2.4-8.3-4.6-11.9c-0.8-1.3-1.1-4-2.3-4.7
	c-1-0.6-2.2-0.8-3.3-0.6c-1.8-1.1-3.4-2.6-3.6-4.8c0-0.5,0-0.9,0.1-1.4h0.2c2.8-0.3,4.3-3,5.7-5.3c2.4-3.8,1.5-9,0-13.3
	c-0.4-1.4-1-2.6-1.9-3.7c-2.1-2.1-5.3-1.6-8-2.6c-0.9-0.3-1.7-0.8-2.6-1.1c-1.8-0.4-3.6,0.2-5.2,1.1c-1.6,0.9-3.1,2-4.8,2.7
	c-1.7,0.7-3.8,1.2-4.2,3.1c-0.1,0.6-0.1,1.3,0.1,1.9c0.4,1.2,1.1,2.3,2,3.1c-2.8,6.1-0.4,13.5,5.3,16.5c0.5,0.3,1.1,0.5,1.7,0.7
	c0.5,0.8,0.9,1.7,1.4,2.6c0.7,1.6,1.4,3.4,1.1,5.1c-0.5,0.5-0.9,1.1-1.3,1.7c-1.8,2.8-2.9,6-3.9,9.3c-1.3,4.1-2.3,8.4-3.1,12.7
	c-1.6,3.6-3.5,7-4.6,10.8c-2,0-4.1-0.3-6-0.9l-5.4-1.3c-1.9-0.5-3.9-1-5.3-2.3c-0.8-0.7-1.4-1.6-2.2-2.3c-0.8-0.7-2.4-1.5-3.3-0.9
	c-0.2,0.1-0.3,0.2-0.4,0.4c-0.8-1.7-1.6-3.5-2.5-5.2c-1.3-2.4-3.3-4.5-5.8-5c-1.5-0.3-3.1,0.1-4.4,1.1c-1.5,1.1-2.4,3.5-1.3,5.1
	c0.3,0.4,0.6,0.7,0.9,1c0.7,0.9,1.4,1.9,2,3c2.1,3.1,5.2,5.3,8.7,6.1l-0.2,0.7c-0.5,1.4-1.4,3.2-1.2,4.7l24.2,8.9
	c1.6,0.7,3.2,1.1,4.9,1.2c0.7,0,1.3-0.1,1.9-0.3v1.3v0.1c0.1,9.2-1.3,18.2-1.5,27.4c0,1.7,0,3.5,1,4.8c1.1,1.4,3,1.7,4.7,1.4
	c0.4-0.1,0.8-0.2,1.2-0.3c0.6,2.3,1,4.6,1.2,7l1.6,12.4c0.2,1.3,0.3,2.6,0.3,3.8c-0.2,2.9-1.6,5.5-2.6,8.2c-1,2.7-1.6,5.9-0.3,8.4
	c0.4,0.8,1,1.4,1.4,2.2c0.5,1.2,0.7,2.6,0.6,3.9c0.1,3.7,0.2,7.5,0.3,11.2c-0.3,0-0.6,0-0.8,0.2c-1.3,1.1-1.2,6.5-1.3,8.1
	c-0.1,2.8,0,5.6-0.1,8.4c-0.2,3.8-0.7,7.5-1.7,11.2c-0.2,1.2-0.7,2.3-1.5,3.2c-0.8,0.7-1.7,1.2-2.6,1.5c-3.2,1.1-6.6,1.6-9.9,1.5
	c-1.4,0-2.8-0.2-4,0.4c-1.3,0.6-2.3,2.1-1.8,3.5c0.4,1.2,1.6,1.7,2.7,2.2c2.5,0.9,4.8,2.1,7.1,3.5c0.9,0.6,1.8,1.2,2.7,1.7
	c0.9,0.4,1.9,0.6,2.8,0.7l11.4,2.1c2.3,0.4,5.2,0.7,6.6-1.4c0.8-1.1,0.9-2.6,0.9-4.1c-0.1-2.8-0.6-5.6-0.2-8.4
	c0.3-1.6,0.7-3.3,1.2-4.8c1.1-3.6,2.3-7.3,3.4-10.9c1.1-3.6,2.3-7.3,2.7-11.2c0.2-1.4,0.1-3-0.8-3.8c-0.2-0.2-0.5-0.4-0.9-0.5
	c0-3.3-0.4-6.7-0.3-10c0-0.8,0.1-1.7,0.2-2.5c0.6,0.6,1.1,1.3,1.6,2c1.1,1.9,1.5,4.3,3.2,5.5c1.4,1.1,3.5,1,4.6,2.5
	c0.3,0.6,0.6,1.2,0.7,1.9c0.6,1.6,1.5,3.1,2.6,4.4c0.4,1.5,0.9,3,1.6,4.4c0.9,2.2,1.9,4.3,2.8,6.5c1,2.3,2,4.6,3.2,6.8
	c0.9,1.4,1.6,2.9,2.2,4.5c0.9,3.4-0.6,7.2-2.9,9.7c-2.3,2.5-5.4,4-8.5,5.3c-0.3,0.1-0.6,0.3-0.9,0.6c-0.3,0.3-0.4,0.8-0.4,1.2
	c0,1.6,1.2,3,2.6,3.5c1.4,0.4,2.9,0.5,4.4,0.2c8.2-1.1,16.4-3.2,23.7-7.5c1.1-0.6,2.1-1.4,2.8-2.4
	C512.4,445.8,512.5,444.5,512.1,443.3z"/>
<path class="st12" d="M477.3,287.7c1.4,2.3,2.7,4.6,3.9,7c0.8,1.6,1.5,3.2,2,5c0.7,2.8,0.7,5.7,1.3,8.6c0.6,3.3,2.2,6.5,2.2,9.9
	c-0.1,3-1,5.8-2.7,8.2c-1.7,2.3-3.6,4.4-5.7,6.3c-4.9-13.6-7.6-27.9-8-42.5c-0.1-2-0.1-4.1,0.6-6c0.4-1.2,2.4-4.4,3.7-3.1
	c0.5,0.5,0.6,2.6,0.9,3.3C476,285.5,476.6,286.6,477.3,287.7z"/>
<path class="st2" d="M477.3,287.7c1.4,2.3,2.7,4.6,3.9,7c0.8,1.6,1.5,3.2,2,5c0.7,2.8,0.7,5.7,1.3,8.6c0.6,3.3,2.2,6.5,2.2,9.9
	c-0.1,3-1,5.8-2.7,8.2c-1.7,2.3-3.6,4.4-5.7,6.3c-4.9-13.6-7.6-27.9-8-42.5c-0.1-2-0.1-4.1,0.6-6c0.4-1.2,2.4-4.4,3.7-3.1
	c0.5,0.5,0.6,2.6,0.9,3.3C476,285.5,476.6,286.6,477.3,287.7z"/>
<path class="st1" d="M307.5,193c-5.1,5.5-5.7,7.9-8.8,9c-3.1,1.1-14.1,7.2-10.6,14l9.3,6.6l0.3,0.2l1.4,4.6l-14.1,27
	c0,0-23.2-11.4-25.5,5.5c-2.3,16.9-0.8,21.5-1.4,30.5c-0.6,9,0.2,11.6-1.8,11.6c-2,0-2.8-5.9-2.8-5.9s-0.1-0.3-0.4-0.8
	c-3-6.8-23.6-56.6,9.4-90.9c0,0,15.3-1.1,19-20c2.5-13,11.4-11.9,17.3-9.3c1.9,0.8,3.7,1.9,5.3,3.4c1.4,1.5,2.7,3.1,3.8,4.9
	C309.5,186.3,310.4,189.9,307.5,193z"/>
<path class="st2" d="M297.7,222.9l1.4,4.6l-14.1,27c0,0-23.2-11.4-25.5,5.5s-0.8,21.5-1.4,30.5c-0.6,9,0.2,11.6-1.8,11.6
	s-2.8-5.9-2.8-5.9s-0.1-0.3-0.4-0.8c-1-8.4-6.2-57.8,12.6-55.2c0,0,15.3,7.7,17.7,4.6c1.9-2.4,10.5-16.4,14-22.1L297.7,222.9z"/>
<path class="st2" d="M307.8,183.4l-9.3,11.4c0,0-10.8,15.6-13,14.9c-0.7-0.2-1.4-0.2-2-0.3c-2.2-0.2-3.8-2.2-3.7-4.6
	c0.1-1,0.4-1.9,1.1-2.6c3.7-4.2,10.5-12.1,10.9-13.8s4.8-9.4,6.9-13.2c1.9,0.8,3.7,1.9,5.3,3.4C305.5,180,306.7,181.6,307.8,183.4z"
	/>
<path class="st13" d="M570.9,347.2c-1.6,3.4-9.7,16.1-13.2,21.7l-1.7,2.6c0,0-0.6,4.6-11.2-1.1C534.3,364.7,286.4,252,286.4,252
	l-1.7-5.4l12.2-19.7l271.8,113.1C568.7,339.9,573,342.8,570.9,347.2z"/>
<path class="st2" d="M557.7,368.9l-1.7,2.6c0,0-0.6,4.6-11.2-1.1C534.3,364.7,286.4,252,286.4,252l-1.7-5.4L557.7,368.9z"/>
<path class="st14" d="M408.2,295.3c-2.5-0.4-5.3-0.2-7.3,1.5c-1.2,1.1-1.9,2.6-2.1,4.3c-0.2,1.9,0.9,4.2,2.7,4.3
	c0.4,0,0.9,0,1.3-0.1c1.1,0,2.3,0.1,3.4,0.3c4.5,0.5,8.8-1.5,11.7-5.1c1.5-2.1-0.5-3-2.3-3.4C413.1,296.6,410.6,295.7,408.2,295.3z"
	/>
<path class="st3" d="M451.2,357.9l1.6,12.2c0.2,1.3,0.3,2.5,0.2,3.8c-0.2,2.9-1.6,5.5-2.6,8.1s-1.6,5.9-0.3,8.3
	c0.4,0.8,1,1.4,1.4,2.2c0.5,1.2,0.7,2.6,0.6,3.9l0.4,17.3c5,0.4,10,0.3,14.9-0.1c0.2,0,0.4-0.1,0.5-0.2c0.1-0.2,0.2-0.4,0.2-0.6
	c0.2-4.1-0.4-8.1-0.2-12.2c0.1-1.5,0.3-3,0.3-4.5c0.1-6-2.7-12-1.9-17.9c0.3-1.5,0.6-3,1-4.5c2.6-10.4,2.1-21.3,1.5-32.1
	c0-0.2,0-0.3-0.1-0.5c-0.1-0.1-0.2-0.2-0.3-0.2c-5.7-1.8-11.9-0.6-16.6,3.4c-0.7,0.6-2.5,1.2-2.9,1.9c-0.6,1,0.2,2,0.6,3.1
	C450.4,352.3,451,355.1,451.2,357.9z"/>
<path class="st2" d="M451.2,357.9l1.6,12.2c0.2,1.3,0.3,2.5,0.2,3.8c-0.2,2.9-1.6,5.5-2.6,8.1s-1.6,5.9-0.3,8.3
	c0.4,0.8,1,1.4,1.4,2.2c0.5,1.2,0.7,2.6,0.6,3.9l0.4,17.3c5,0.4,10,0.3,14.9-0.1c0.2,0,0.4-0.1,0.5-0.2c0.1-0.2,0.2-0.4,0.2-0.6
	c0.2-4.1-0.4-8.1-0.2-12.2c0.1-1.5,0.3-3,0.3-4.5c0.1-6-2.7-12-1.9-17.9c0.3-1.5,0.6-3,1-4.5c2.6-10.4,2.1-21.3,1.5-32.1
	c0-0.2,0-0.3-0.1-0.5c-0.1-0.1-0.2-0.2-0.3-0.2c-5.7-1.8-11.9-0.6-16.6,3.4c-0.7,0.6-2.5,1.2-2.9,1.9c-0.6,1,0.2,2,0.6,3.1
	C450.4,352.3,451,355.1,451.2,357.9z"/>
<path class="st3" d="M481.1,354.2c-0.8,1.7-1.8,3.3-2.2,5.1c-1.2,4.8,1.9,9.7,1.5,14.6c-0.1,1.5-0.6,3.1-0.6,4.6s0.5,3.3,1.8,4
	c0.9,0.5,1.9,0.4,2.7,1c1.4,0.9,1.5,2.9,1.4,4.6c-0.1,1.7-0.4,3.6,0.6,4.9c0.8,1,2.1,1.4,2.9,2.4c0.5,0.7,0.9,1.5,1.2,2.3
	c1.2,2.3,3.5,3.7,5.3,5.5s3.4,4.5,2.6,7c-0.6,1.8-2.3,3-3.9,3.9c-3,1.6-6.1,2.8-9.4,3.6c-0.3,0.1-0.7,0.1-1.1,0.1
	c-0.4-0.1-0.7-0.4-0.9-0.7c-1.9-2-3.9-4.1-4.7-6.8c-0.2-0.7-0.4-1.3-0.7-1.9c-1-1.5-3.1-1.5-4.6-2.5c-1.7-1.2-2.1-3.7-3.2-5.5
	c-1.1-1.8-2.7-2.9-3.9-4.6c-2-2.7-2.5-6.3-3.9-9.4c-0.6-1.3-1.4-2.5-1.8-3.9c-0.5-1.6-0.8-3.3-0.9-5c-0.9-8.1-3.2-16.3-1.8-24.3
	c0.3-1.8,0.8-3.5,1-5.3c0.4-3.1-0.2-6.4,0.2-9.5c0-0.8,0.4-1.5,1-2c0.3-0.2,0.7-0.3,1.1-0.2c3.8-0.2,7.6-0.1,11.4,0.3
	c1.9,0.2,4.1,0.6,5.3,2.3c1,1.5,0.9,3.4,1.2,5.2c0.4,2.2,1.4,3.4,2.5,5.1S481.9,352.5,481.1,354.2z"/>
<path class="st12" d="M466.2,410.6c1,0,2.1-0.1,2.9,0.6c1,0.9,1,2.5,0.8,3.8c-0.5,3.8-1.6,7.5-2.8,11.1l-3.4,10.8
	c-0.5,1.5-0.9,3.1-1.2,4.8c-0.3,2.8,0.2,5.5,0.2,8.3c0,1.4-0.1,2.9-0.9,4c-1.5,2-4.3,1.8-6.6,1.4l-11.4-2.1c-1-0.1-1.9-0.4-2.8-0.7
	c-1-0.5-1.9-1-2.7-1.7c-2.3-1.4-4.6-2.6-7.1-3.5c-1.1-0.4-2.3-1-2.7-2.1c-0.5-1.4,0.6-2.9,1.8-3.5c1.3-0.6,2.7-0.4,4-0.4
	c3.4,0.1,6.7-0.4,9.9-1.4c1-0.3,1.9-0.8,2.6-1.5c0.8-0.9,1.3-2.1,1.5-3.3c1-3.6,1.6-7.3,1.7-11.1c0.1-2.8,0-5.5,0.1-8.3
	c0.1-1.6-0.1-6.9,1.3-8.1c1-0.8,5.2,1.5,6.6,1.8C460.9,410.4,463.6,410.7,466.2,410.6z"/>
<path class="st12" d="M503.8,418.3c1.1,4,1.3,8.2,2,12.3c0.7,4.1,2,8.3,4.8,11.1c0.5,0.5,1,1,1.4,1.7c0.5,1.2,0.3,2.6-0.5,3.6
	c-0.8,1-1.7,1.8-2.8,2.3c-7.3,4.3-15.5,6.4-23.7,7.5c-1.5,0.3-3,0.2-4.4-0.2c-1.4-0.5-2.6-1.9-2.6-3.5c0-0.4,0.1-0.9,0.4-1.2
	c0.3-0.2,0.5-0.4,0.9-0.5c3-1.3,6.1-2.8,8.5-5.3c2.4-2.5,3.8-6.2,2.9-9.6c-0.5-1.6-1.3-3.1-2.2-4.4c-1.2-2.2-2.3-4.4-3.2-6.7
	l-2.8-6.4c-0.8-1.9-1.7-3.8-1.8-5.9c3.6,0.2,7.1-0.4,10.4-1.8c1.6-0.7,3-1.6,4.3-2.8c1.1-1,2.1-2.8,3.6-1.5c1.2,1,1.9,3.9,2.6,5.4
	C502.4,414.3,503.2,416.3,503.8,418.3z"/>
<path class="st14" d="M462.3,259.3c0.3,2.7,2.7,4.4,5,5.5l-14.5,5c0.9-1.9,0.2-4.3-0.7-6.2c-0.8-1.5-1.6-3-2.6-4.4
	c-0.1-0.2-0.3-0.5-0.2-0.7c0.1-0.2,0.2-0.3,0.4-0.3c3-1.4,6-2.9,9.3-3.4c0.9-0.1,2.7-0.5,3.4,0.5
	C463.1,256.1,462.1,258.1,462.3,259.3z"/>
<path class="st2" d="M462.3,259.3c0.3,2.7,2.7,4.4,5,5.5l-14.5,5c0.9-1.9,0.2-4.3-0.7-6.2c-0.8-1.5-1.6-3-2.6-4.4
	c-0.1-0.2-0.3-0.5-0.2-0.7c0.1-0.2,0.2-0.3,0.4-0.3c3-1.4,6-2.9,9.3-3.4c0.9-0.1,2.7-0.5,3.4,0.5
	C463.1,256.1,462.1,258.1,462.3,259.3z"/>
<ellipse class="st14" cx="453.9" cy="249.3" rx="11.3" ry="12.2"/>
<path class="st12" d="M444,349.9c1.1,1.4,3,1.7,4.7,1.4c4-0.7,7.2-3.8,11.1-5c4.8-1.4,9.8,0.4,14.3,2.6c4.5,2.2,9,4.9,13.9,5.2
	c-4.4-10.7-1.9-23.5-6.1-34.2c-1-2.6-2.5-5.2-2.7-8c-0.3-3.5,1.3-6.9,1.6-10.4c0.2-3.1-0.6-6.2-1.5-9.2c-1-3.7-2.1-7.3-3.1-11
	c-1.2-4.1-2.4-8.3-4.6-11.8c-0.8-1.3-1.1-3.9-2.3-4.7c-2.8-1.7-6.9,0.4-9.9,0.6c-3,0.1-5.7,2.4-7.5,5c-1.8,2.7-2.9,6-3.9,9.2
	c-1.5,4.8-2.7,9.7-3.4,14.7c-0.1,0.7-0.2,1.5-0.2,2.3c-0.6,7.1,0.3,14.3,0.3,21.4v0c0.1,9.1-1.3,18.1-1.5,27.2
	C443,346.8,443.1,348.6,444,349.9z"/>
<path class="st2" d="M444.6,317.9c2.2-0.6,4.2-2.2,6-3.8c1.5-1.4,2.8-3.1,4-4.9c1.4-2.4,2.6-5,3.4-7.7c2.4-7.2,3.9-14.7,4.5-22.4
	c0.2-2.1,0.2-4.3-0.9-6c-1.3-1.8-3.7-2.5-5.6-1.5c-1.5,0.8-2.5,2.4-3.4,4c-1.8,3.1-3.6,6.2-4.8,9.6c-0.5,1.5-0.9,3.1-1.4,4.6
	c-0.5,1.5-1.1,3-1.8,4.4c-0.1,0.7-0.2,1.5-0.2,2.3C443.7,303.6,444.6,310.7,444.6,317.9z"/>
<path class="st12" d="M461.5,271.8c1.2,1.7,1.1,3.9,0.9,6c-0.6,7.6-2.1,15.2-4.5,22.4c-0.8,2.7-2,5.3-3.4,7.7
	c-1.1,1.8-2.5,3.4-4,4.9c-2.2,2.2-4.9,4.1-7.8,4.1c-1.7-0.1-3.3-0.5-4.9-1.1l-24.2-8.9c-0.2-1.5,0.7-3.2,1.2-4.6l1.3-4.1
	c0.4-1.1,0.8-2.4,1.8-3c1-0.6,2.5,0.2,3.3,0.9c0.8,0.7,1.4,1.6,2.2,2.3c1.5,1.3,3.5,1.8,5.3,2.3l5.4,1.3c2,0.6,4,0.9,6,0.9
	c1.5-5,4.4-9.4,6-14.3c0.5-1.5,0.9-3.1,1.4-4.6c1.2-3.4,3-6.5,4.8-9.6c0.9-1.5,1.9-3.2,3.4-4C457.8,269.4,460.2,270,461.5,271.8z"/>
<path class="st12" d="M457.5,252c-0.1-0.8-0.3-1.6-0.7-2.3c-0.4-0.7-1.2-1.1-1.9-0.9c-1.1,0.4-1.5,2.3-2.7,2.3
	c-0.8,0-1.4-0.8-1.6-1.7c-0.3-0.8-0.4-1.8-1-2.3c-0.4-0.3-0.9-0.6-1.4-0.7c-2.7-0.9-5.6-2.7-6.5-5.6c-0.2-0.6-0.3-1.3-0.1-1.9
	c0.4-1.9,2.6-2.4,4.2-3.1s3.2-1.8,4.8-2.7c1.6-0.9,3.5-1.5,5.2-1c0.9,0.3,1.8,0.7,2.6,1.1c2.7,1,5.9,0.5,8,2.6
	c0.9,1,1.6,2.3,1.9,3.6c1.4,4.3,2.4,9.4,0,13.2c-1.5,2.3-2.9,5-5.7,5.3C459.3,258.3,458,255,457.5,252z"/>
<g class="st15">
	<path d="M452.5,248c-0.3-0.8-0.4-1.8-1-2.3c-0.4-0.3-0.9-0.6-1.4-0.7c-2.8-0.9-5.6-2.7-6.5-5.6c-0.2-0.6-0.3-1.3-0.1-1.9
		c0.1-0.3,0.2-0.6,0.3-0.8c-1,0.5-2,1.1-2.2,2.3c-0.1,0.6-0.1,1.3,0.1,1.9c0.9,2.9,3.8,4.7,6.5,5.6c0.5,0.1,1,0.4,1.4,0.7
		c0.6,0.6,0.7,1.5,1,2.3s0.8,1.7,1.6,1.7c0.8,0,1.2-0.8,1.7-1.5C453.2,249.6,452.7,248.8,452.5,248z"/>
	<path d="M464.5,256.5c-3.3,0.3-4.6-2.9-5.2-5.9c-0.1-0.8-0.3-1.6-0.6-2.3c-0.4-0.7-1.2-1.1-1.9-0.9c-0.6,0.3-1.1,0.8-1.4,1.4
		c0.6,0.1,1.1,0.4,1.5,1c0.4,0.7,0.6,1.5,0.7,2.3c0.5,3,1.8,6.2,5.2,5.9c1.3-0.2,2.5-0.8,3.4-1.9C465.6,256.3,465,256.4,464.5,256.5
		z"/>
</g>
<ellipse class="st5" cx="597.1" cy="381.2" rx="20.8" ry="4.3"/>
<ellipse class="st3" cx="596.8" cy="379.4" rx="2.4" ry="3.4"/>
<ellipse class="st3" cx="596.8" cy="375.2" rx="2.4" ry="3.4"/>
<ellipse class="st3" cx="596.8" cy="371" rx="2.4" ry="3.4"/>
<ellipse class="st3" cx="596.8" cy="366.9" rx="2.4" ry="3.4"/>
<ellipse class="st3" cx="596.8" cy="362.7" rx="2.4" ry="3.4"/>
<ellipse class="st3" cx="596.8" cy="358.5" rx="2.4" ry="3.4"/>
<ellipse class="st3" cx="596.8" cy="354.3" rx="2.4" ry="3.4"/>
<path class="st5" d="M605.9,325.8c0.3-0.5,0.6-0.9,0.9-1.4l-6.4-1.1l6.9,0c1.3-3.1,1.4-6.7,0.2-9.9l-9.2,5.2l8.5-6.7
	c-3.2-6-10.3-8-15.8-4.5c-5.5,3.5-7.4,11.1-4.2,17.1c0.3,0.5,0.6,1,0.9,1.4c-0.5,0.7-1,1.5-1.3,2.3l8.3,4.6l-8.8-3.2
	c-1.2,4-0.5,8.4,1.9,11.7c-4,5.4-3.1,13.3,2,17.5s12.3,3.3,16.3-2.1c3.3-4.5,3.3-10.9,0-15.4C609.2,336.7,609.2,330.3,605.9,325.8
	L605.9,325.8z"/>
<path class="st2" d="M585.1,333.5c0,2.8,0.9,5.5,2.5,7.7c-4,5.4-3.1,13.3,2,17.5s12.3,3.3,16.3-2.1c3.3-4.5,3.3-10.9,0-15.4
	C607.4,339.1,585.1,332.1,585.1,333.5z"/>
</svg>
