<?xml version="1.0" encoding="utf-8"?>
<!-- Generator: Adobe Illustrator 22.0.0, SVG Export Plug-In . SVG Version: 6.00 Build 0)  -->
<svg version="1.1" id="a6ee8617-cc99-4eb9-a93b-e1a7e83c9724"
	 xmlns="http://www.w3.org/2000/svg" xmlns:xlink="http://www.w3.org/1999/xlink" x="0px" y="0px" viewBox="0 0 1088 826.3"
	 style="enable-background:new 0 0 1088 826.3;" xml:space="preserve">
<style type="text/css">
	.st0{fill:#FD951F;}
	.st1{opacity:0.3;enable-background:new    ;}
	.st2{fill:#3F3D56;}
	.st3{opacity:0.1;enable-background:new    ;}
	.st4{fill:#121214;}
	.st5{fill:#A8A8A8;}
	.st6{opacity:0.2;enable-background:new    ;}
	.st7{fill:#FFB9B9;}
	.st8{fill:#D0CDE1;}
	.st9{fill:#2F2E41;}
	.st10{fill:#A0616A;}
	.st11{fill:#575A89;}
</style>
<title>code typing</title>
<path class="st0" d="M153,329.4C200.8,141.3,366.1,5.6,560,0.2c102.5-2.9,210.4,31.1,289,150.1C989.4,363,840.4,510,736.5,579.9
	c-50.2,33.8-95.4,74.5-134.4,120.8C531.9,784,396.8,887.5,236,725.3C119.4,607.7,121.2,454.6,153,329.4z"/>
<polygon class="st1" points="368.4,507.4 270,409.3 368.4,311.2 338.4,281.3 210,409.3 338.4,537.3 368.4,507.4 "/>
<path class="st1" d="M649.4,416.3h-40v-40h40V416.3z M448.6,376.3h40v40h-40V376.3z M569,416.3h-40v-40h40V416.3z"/>
<polygon class="st1" points="703.6,506.4 802.1,408.3 703.7,310.2 733.7,280.3 862,408.3 733.6,536.3 "/>
<path class="st2" d="M0,752.3c0,16.6,243.6,74,544,74s544-57.4,544-74s-243.6,14-544,14S0,735.7,0,752.3z"/>
<path class="st3" d="M0,752.3c0,16.6,243.6,74,544,74s544-57.4,544-74s-243.6,14-544,14S0,735.7,0,752.3z"/>
<ellipse class="st2" cx="544" cy="752.3" rx="544" ry="30"/>
<path class="st2" d="M455.3,608c0,64-40.2,115.8-89.8,115.8"/>
<path class="st4" d="M365.5,723.8c0-64.7-44.8-117.1-100.2-117.1"/>
<path class="st4" d="M422.8,613.8c0,60.8-25.6,110-57.3,110"/>
<path class="st2" d="M365.5,723.8c0-82.7-51.8-149.7-115.8-149.7"/>
<path class="st5" d="M384.4,724.6c0,0-12.7-0.4-16.6-3.1s-19.6-6-20.5-1.6s-19.1,21.8-4.8,21.9s33.4-2.2,37.2-4.6
	S384.4,724.6,384.4,724.6z"/>
<path class="st6" d="M342.3,740.2c14.4,0.1,33.4-2.2,37.2-4.6c2.9-1.8,4.1-8.2,4.5-11.1c0.3,0,0.4,0,0.4,0s-0.8,10.3-4.6,12.6
	s-22.9,4.7-37.2,4.6c-4.1,0-5.6-1.5-5.5-3.7C337.6,739.4,339.2,740.2,342.3,740.2z"/>
<path class="st7" d="M222.5,382.9c0,0,30.8-23.4,33.1-14.8s-22.6,28-22.6,28L222.5,382.9z"/>
<path class="st3" d="M222.5,382.9c0,0,30.8-23.4,33.1-14.8s-22.6,28-22.6,28L222.5,382.9z"/>
<path class="st8" d="M120.8,308.8c0,0,36.6,65.4,37.4,74.8s0.8,10.1,3.9,9.3s46-5.5,49.9-3.9s11.7-9.3,11.7-9.3s14.8,14.8,11.7,17.9
	s-12.5,4.7-14,8.6s-3.9,7.8-10.9,7s-54.5,12.5-60.8,10.1s-7.8-6.2-10.9-6.2s-9.3-3.1-9.3-3.9s-21.8-42.1-21.8-42.1
	S81.9,315.1,120.8,308.8z"/>
<path class="st3" d="M120.8,308.8c0,0,36.6,65.4,37.4,74.8s0.8,10.1,3.9,9.3s46-5.5,49.9-3.9s11.7-9.3,11.7-9.3s14.8,14.8,11.7,17.9
	s-12.5,4.7-14,8.6s-3.9,7.8-10.9,7s-54.5,12.5-60.8,10.1s-7.8-6.2-10.9-6.2s-9.3-3.1-9.3-3.9s-21.8-42.1-21.8-42.1
	S81.9,315.1,120.8,308.8z"/>
<path class="st9" d="M173.9,265.7c0.3,4.1,0.3,8.3-0.2,12.4c-1.2,8.9-5.3,18.3-1.4,26.6c1.4,3,3.8,5.7,5.1,8.7
	c2.8,6.5,0.3,13.7,0.6,20.6c0.5,8.9,6.2,17.5,14.8,22.4c-14.8,0.5-28.8-6.8-38.1-16.8s-14.5-22.3-18.3-34.6
	c-2-5.8-3.3-11.8-3.8-17.9c-0.3-3.5,0.1-7,1.2-10.4c1.4-3.3,3.2-6.3,5.3-9.1c2.3-3.3,4.7-6.6,8.1-9c4.2-3,12.4-6,18-5.6
	C172.2,253.6,173.7,260.9,173.9,265.7z"/>
<path class="st7" d="M151.2,290.1c0,0-8.6,30.4-1.6,38.9s-42.1-3.9-42.1-3.9s24.1-24.1,12.5-39.7L151.2,290.1z"/>
<path class="st3" d="M151.2,290.1c0,0-8.6,30.4-1.6,38.9s-42.1-3.9-42.1-3.9s24.1-24.1,12.5-39.7L151.2,290.1z"/>
<polygon class="st4" points="368.4,488.4 270,390.3 368.4,292.2 338.4,262.3 210,390.3 338.4,518.3 368.4,488.4 "/>
<polygon class="st7" points="179.3,695.2 179.3,717.8 167.6,731.8 157.4,727.2 160.6,694.4 "/>
<path class="st9" d="M174.6,716.3c0,0,3.1-10.9,8.6-3.1s10.9,24.9,14,25.7s24.9,24.9,3.1,24.9s-28.8-10.1-28.8-10.1
	s-21.8-8.6-21.8-10.1s3.1-30.4,4.7-30.4s2.3,5.5,6.2,5.5S174.6,716.3,174.6,716.3z"/>
<polygon class="st7" points="127.1,699.1 127.8,720.1 109.1,727.9 109.1,697.6 "/>
<path class="st9" d="M106.8,720.1c0,0,10.1-10.9,15.6-8.6c2.7,1.1,5.3,2.4,7.8,3.9c0,0,3.1,10.1,4.7,18.7s2.3,12.5,3.9,15.6
	s3.1,14.8-12.5,16.4c-15.6,1.6-20.3-7-20.3-7l-3.9-20.3C102.1,738.8,103.7,720.1,106.8,720.1z"/>
<path class="st9" d="M169.1,474.8c0,0,22.6,50.6,19.5,96.6c0,0,7.8,17.9,3.1,46s-10.9,84.1-10.9,84.1s-21,2.3-22.6-1.6
	c0,0-1.6-38.9-3.1-40.5s0.8-37.4,3.1-44.4s-21.8-76.3-21.8-76.3l6.2-86.5L169.1,474.8z"/>
<path class="st3" d="M169.1,474.8c0,0,22.6,50.6,19.5,96.6c0,0,7.8,17.9,3.1,46s-10.9,84.1-10.9,84.1s-21,2.3-22.6-1.6
	c0,0-1.6-38.9-3.1-40.5s0.8-37.4,3.1-44.4s-21.8-76.3-21.8-76.3l6.2-86.5L169.1,474.8z"/>
<path class="st9" d="M175.4,471.7l-14.8,31.9c0,0-7,72.4-10.9,81.8c0,0-1.6,26.5-8.6,35.1s-12.5,84.1-12.5,84.1s-19.5,5.5-21,0
	s-6.2-42.8-6.2-42.8s-1.6-31.9,7-53s-10.1-96.6-10.1-96.6s-19.5-36.6,8.6-66.2L175.4,471.7z"/>
<circle class="st7" cx="134.1" cy="267.6" r="31.9"/>
<path class="st8" d="M104.5,315.9c0,0,33.5,0,38.2,3.9c2.4,2.3,6.2,2.3,8.6,0c0,0,11.7,0.8,14.8,10.1s12.5,21.8,12.5,21.8
	s14,10.1,6.2,36.6s-1.6,69.3-1.6,69.3s6.2,9.3,0,13.2s-8.6,5.5-7.8,8.6s-70.9-25.7-70.9-31.2s1.6-10.1,0-12.5s-3.1-6.2-1.6-10.1
	s-1.6-4.7-0.8-8.6s-3.9-32.7-7-45.2S92.8,316.6,104.5,315.9z"/>
<path class="st7" d="M222.5,392.2c0,0,30.8-23.4,33.1-14.8s-22.6,28-22.6,28L222.5,392.2z"/>
<path class="st8" d="M120.8,319.7c0,0,36.6,65.4,37.4,74.8s0.8,10.1,3.9,9.3s46-5.5,49.9-3.9s11.7-9.3,11.7-9.3s14.8,14.8,11.7,17.9
	s-12.5,4.7-14,8.6s-3.9,7.8-10.9,7s-54.5,12.5-60.8,10.1s-7.8-6.2-10.9-6.2s-9.3-3.1-9.3-3.9s-21.8-42.1-21.8-42.1
	S81.9,326,120.8,319.7z"/>
<path class="st9" d="M149.9,288c0.4-3.2,2.1-6,2.9-9.1c1.3-5,0.5-10.3-2.2-14.7c-4.6-7.4-13.6-10.7-19.8-16.7
	c-0.1,3.1-2.3,5.7-4.6,7.7c-2.4,2-5.1,3.6-7.1,5.9c-1.9,2.5-3.3,5.3-4.1,8.3c-1.2,3.5-1.8,7.2-1.6,10.9c0.2,3.7,1.9,7.3,4.7,9.7
	c2.3,1.8,5.6,2.9,6.7,5.7c0.4,1.4,0.6,2.8,0.4,4.3c-0.5,8.6-1,17.3,1,25.6s7,16.4,14.7,20.1c-6.4,0.5-12.9,0.9-19-0.7
	c-6.2-1.6-12.1-5.7-14.2-11.7c-1.1-3-1.2-6.3-2.6-9c-3.8-7-14.2-7.3-19.3-13.4c-2.1-2.4-3-5.6-3.8-8.7c-4.3-18.3-1.3-37.7,5.3-55.2
	c2.3-6.1,5.1-12.2,10-16.4c4.1-3.6,9.4-5.6,14.7-7.3c7.6-2.5,15.5-4.5,23.5-4.8c3.5-0.2,7,0.2,10.3,1.2c3.3,1.2,6.4,2.9,9.1,5.2
	c12.6,9.8,21.1,25.4,20,41.3c-0.7,9.6-4.8,18.7-10,26.8c-1.8,2.8-6.2,8.9-10.2,7.1C151,298.3,149.4,291.4,149.9,288z"/>
<path class="st4" d="M649.4,397.3h-40v-40h40V397.3z M448.6,357.3h40v40h-40V357.3z M569,397.3h-40v-40h40V397.3z"/>
<ellipse class="st9" cx="881.8" cy="211.8" rx="33.7" ry="26.3"/>
<path class="st10" d="M876.1,392.6c0,0-30.3,2-35.7-2c-5.4-4-28.3,5.4-30.3,10.8s32.3,6.1,37.7,6.1s31,8.1,31,8.1L876.1,392.6z"/>
<path class="st9" d="M938.4,706.1c0,0,14.1,35.6,6.8,39.9s-84.7,1.2-84.7,1.2s-12.9-8,1.8-13.5c0,0,12.3-0.6,20.3-5.5
	c8-4.9,17.2-14.1,17.2-14.1s0.6-13.5,5.5-10.4c3,2,5,5.1,5.5,8.6L938.4,706.1z"/>
<path class="st3" d="M938.4,706.1c0,0,14.1,35.6,6.8,39.9s-84.7,1.2-84.7,1.2s-12.9-8,1.8-13.5c0,0,12.3-0.6,20.3-5.5
	c8-4.9,17.2-14.1,17.2-14.1s0.6-13.5,5.5-10.4c3,2,5,5.1,5.5,8.6L938.4,706.1z"/>
<polygon class="st4" points="703.6,487.4 802.1,389.3 703.7,291.2 733.7,261.3 862,389.3 733.6,517.3 "/>
<path class="st9" d="M960.2,717c0,0,15.5,39,7.4,43.8c-8.1,4.7-92.9,1.3-92.9,1.3s-14.1-8.8,2-14.8c0,0,13.5-0.7,22.2-6.1
	c8.8-5.4,18.8-15.5,18.8-15.5s0.7-14.8,6.1-11.4c3.3,2.1,5.5,5.6,6.1,9.4L960.2,717z"/>
<path class="st9" d="M880.8,469.3l9.4,84.8c0,0,3.4,40.4,13.5,49.1c0,0,0,12.8,3.4,16.8l4.7,53.2c0,0-6.7,19.5-6.1,22.9
	c0.7,3.4-2.7,14.1-2,15.5s32.3,0,32.3,0l-6.7-108.4l-20.9-150.8L880.8,469.3z"/>
<path class="st3" d="M880.8,469.3l9.4,84.8c0,0,3.4,40.4,13.5,49.1c0,0,0,12.8,3.4,16.8l4.7,53.2c0,0-6.7,19.5-6.1,22.9
	c0.7,3.4-2.7,14.1-2,15.5s32.3,0,32.3,0l-6.7-108.4l-20.9-150.8L880.8,469.3z"/>
<path class="st9" d="M897.6,466.6c0,0,7.4,69.3,10.8,84.1c2.1,9.8,3.5,19.7,4,29.6c0,0,0.7,21.5,6.7,27.6c3.6,3.5,5.5,8.4,5.4,13.5
	c0,0,6.1,68,2.7,76.1s-6.7,14.8-3.4,20.2c3.4,5.4,40.4,5.4,40.4,1.3s0-7.4,2-9.4s0-14.8,0-14.8s8.1-59.9,0.7-77.4
	c-7.4-17.5-10.8-65.3-10.8-65.3s5.4-54.5,12.1-63.3s-1.3-39.7-1.3-39.7L897.6,466.6z"/>
<path class="st10" d="M916.6,251.3c-0.8,1.8-2.7,2.8-4.4,3.7c-9.9,5.4-18.2,13.3-26.3,21.1c2-6.9,1.6-14.3-1.2-20.9
	c-1-2.3-2.2-4.7-1.6-7c0.5-1.7,2-3,3.4-4.1c3.3-2.6,6.8-4.9,10.4-7.1c2.5-1.5,7.7-5.5,10.6-5.1c0.2,3.9,0.2,7.4,1.9,11.1
	C909.9,243.9,916.3,252,916.6,251.3z"/>
<circle class="st10" cx="882.1" cy="232.4" r="27.6"/>
<path class="st11" d="M880.8,297.7c0,0-4.7-23.6,8.8-31.6s28.9-17.5,28.9-17.5s4.7-0.7,6.7,9.4c0,0,38.4,7.4,42.4,43.8
	s-2.7,89.5-2.7,89.5s6.1,46.4,13.5,71.4c0,0,6.1,5.4-20.9-2.7s-74,22.9-74,22.9s-4.7-4.7-4.7-8.1s-5.4-22.9-5.4-22.9
	s-4.7-82.8-6.7-92.2S874.7,299,880.8,297.7z"/>
<path class="st9" d="M888.6,235.2c-1.7-0.9-3.5-1.4-5.4-1.4c-1.9,0-3.8-0.6-5.4-1.6c-2.6-2-2.8-5.9-4.7-8.5c-2.8-3.9-8.3-4.3-13-4.1
	c-2.9,0.1-6,0.3-8.5-1.3c-2.5-1.6-3.7-4.7-4.5-7.5c-1-3.4-1.7-7.5,0.8-10c1.7-1.7,4.4-2.1,6.4-3.6c2-1.6,2.8-4.2,3.9-6.5
	c1.2-2.8,3.2-5.2,5.6-7.1c3.6-2.5,8.2-3.1,12.6-3s8.8,0.6,13.2,0.1c3.6-0.4,7.1-1.6,10.7-1.1c4.5,0.7,8.3,4.1,10.5,8.1
	s3.2,8.6,4.1,13.1l2.5,12.2c0.8,3.8,1.6,7.7,1,11.5c-1.3,7.9-8.3,14.2-8.8,22.3c-0.9-4.5-4.1-8.2-8.3-9.9c-0.5-0.3-1.1-0.3-1.7-0.2
	c-0.7,0.2-1.1,0.9-1.5,1.5c-1.2,1.5-4.8,3.9-6.8,2.8C889.6,239.8,890.9,236.8,888.6,235.2z"/>
<path class="st10" d="M958.2,360.9c0,0,4.7,29.6-14.8,26.9c0,0-10.1-1.3-11.4,0s-51.2-7.4-57.9-14.8c0,0-8.1-2.7-12.1,1.3
	s-44.4,8.1-32.3-4c12.1-12.1,31-14.8,31-14.8l25.6,1.3c0,0,13.5,4,21.5,0c8.1-4,31-2.7,31-2.7L958.2,360.9z"/>
<path class="st11" d="M930.6,267.4c0,0,30.3,3.4,30.3,47.1v55.9c0,0-16.8-7.4-20.2-6.7c-3.4,0.7-16.8-8.8-16.8-8.8
	s-15.5-36.3-14.1-46.4S910.4,268.7,930.6,267.4z"/>
<ellipse class="st9" cx="882.1" cy="215.2" rx="25.9" ry="13.5"/>
<ellipse class="st9" cx="906.4" cy="217.6" rx="9.1" ry="22.6"/>
</svg>
