<?xml version="1.0" encoding="utf-8"?>
<!-- Generator: Adobe Illustrator 22.0.0, SVG Export Plug-In . SVG Version: 6.00 Build 0)  -->
<svg version="1.1" id="Layer_1" xmlns="http://www.w3.org/2000/svg" xmlns:xlink="http://www.w3.org/1999/xlink" x="0px" y="0px"
	 viewBox="0 0 750 470" style="enable-background:new 0 0 750 470;" xml:space="preserve">
<style type="text/css">
	.st0{fill:#3F3D56;}
	.st1{fill:#65617D;}
	.st2{opacity:0.2;enable-background:new    ;}
	.st3{opacity:0.1;enable-background:new    ;}
	.st4{fill:#FD951F;}
	.st5{fill:#D4DFEC;}
	.st6{fill:#FBBEBE;}
	.st7{fill:url(#SVGID_1_);}
	.st8{opacity:0.1;}
	.st9{fill:none;stroke:#FD951F;stroke-width:2;stroke-miterlimit:10;}
</style>
<rect x="111.3" y="182.9" class="st0" width="18.4" height="56.5"/>
<rect x="606.3" y="179.9" class="st0" width="18.4" height="59.8"/>
<polygon class="st1" points="742,445.4 742,458.1 594.9,459.5 593.4,459.5 537.5,460.1 536.1,460.1 519.1,460.2 518.6,460.2 
	415.1,461.2 245.1,462.8 244.9,462.8 201.7,463.2 201.3,463.2 9.2,465 9.2,450.3 54.4,422.9 145,422.1 146.9,422.1 147.5,422.1 
	149.5,422 193,421.7 194.9,421.7 195.5,421.7 197.5,421.6 211.4,421.5 211.8,421.5 246.2,421.2 246.5,421.2 515,418.9 521.6,418.9 
	522.3,418.9 527.3,418.8 563.7,418.5 565.7,418.5 567.4,418.5 568.4,418.5 579.7,418.4 582,418.4 585,418.3 594.4,418.3 
	609.4,418.1 611.3,418.1 614.7,418.1 615.3,418.1 687.6,417.5 "/>
<polygon class="st2" points="742,445.4 742,458.1 594.9,459.5 593.4,459.5 537.5,460.1 536.1,460.1 519.1,460.2 518.6,460.2 
	415.1,461.2 245.1,462.8 244.9,462.8 201.7,463.2 201.3,463.2 9.2,465 9.2,450.3 54.4,422.9 145,422.1 146.9,422.1 147.5,422.1 
	149.5,422 193,421.7 194.9,421.7 195.5,421.7 197.5,421.6 211.4,421.5 211.8,421.5 246.2,421.2 246.5,421.2 515,418.9 521.6,418.9 
	522.3,418.9 527.3,418.8 563.7,418.5 565.7,418.5 567.4,418.5 568.4,418.5 579.7,418.4 582,418.4 585,418.3 594.4,418.3 
	609.4,418.1 611.3,418.1 614.7,418.1 615.3,418.1 687.6,417.5 "/>
<path class="st0" d="M193.1,396.4v24c0,2.3-1.3,4.4-3.4,5.4c-0.8,0.4-1.6,0.6-2.4,0.6l-33.8,0.7c-0.9,0-1.8-0.2-2.6-0.6
	c-2.1-1-3.5-3.1-3.5-5.5v-24.7H193.1z"/>
<path class="st3" d="M193.1,396.4v24c0,2.3-1.3,4.4-3.4,5.4c-0.8,0.4-1.6,0.6-2.4,0.6l-33.8,0.7c-0.9,0-1.8-0.2-2.6-0.6
	c-2.1-1-3.5-3.1-3.5-5.5v-24.7H193.1z"/>
<path class="st0" d="M195.1,396.4v24c0,2.3-1.3,4.4-3.4,5.4c-0.8,0.4-1.6,0.6-2.4,0.6l-33.8,0.7c-0.9,0-1.8-0.2-2.6-0.6
	c-2.1-1-3.5-3.1-3.5-5.5v-24.7H195.1z"/>
<rect x="565.7" y="396.4" class="st0" width="45.7" height="30.9"/>
<rect x="565.7" y="396.4" class="st3" width="45.7" height="30.9"/>
<rect x="563.7" y="396.4" class="st0" width="45.7" height="30.9"/>
<polygon class="st3" points="129.7,182.9 129.7,188.5 111.3,188 111.3,182.9 "/>
<path class="st1" d="M250.8,24.6l-22.1,160.8c-0.3,2.1-2.1,3.7-4.2,3.6l-177-4.6l-3.4-0.1c-2.3-0.1-4.1-2-4.1-4.3c0-0.2,0-0.3,0-0.5
	L64.9,11.2c0.3-2.2,2.2-3.7,4.4-3.6l177.6,12.2c2.3,0.1,4,2.1,3.9,4.4C250.8,24.4,250.8,24.5,250.8,24.6z"/>
<polygon class="st4" points="76.8,19.5 58.1,167.8 220.7,173.1 240.7,30 "/>
<path class="st1" d="M284,17.2h187.8c2.8,0,5.2,2.3,5.2,5.2v159.4c0,2.9-2.3,5.2-5.2,5.2H284c-2.8,0-5.2-2.3-5.2-5.2V22.4
	C278.8,19.6,281.1,17.2,284,17.2z"/>
<rect x="288.1" y="28.7" class="st4" width="180.1" height="141.5"/>
<polygon class="st3" points="624.7,179.9 624.7,183.6 606.3,184 606.3,179.9 "/>
<path class="st1" d="M707.7,176.8c0.1,1.7-1.1,3.1-2.8,3.2c0,0-0.1,0-0.1,0l-181.2,3.8c-1.6,0-2.9-1.2-3-2.7L505,17.1
	c-0.2-1.7,1-3.1,2.7-3.3c0,0,0.1,0,0.1,0l179.8-9.1l1.9-0.1c1.6-0.1,3,1.1,3.1,2.7L707.7,176.8z"/>
<polygon class="st4" points="515.3,23.4 679.6,15.3 693.4,164.2 530.5,168.2 "/>
<path class="st3" d="M707.7,176.8c0.1,1.7-1.1,3.1-2.8,3.2c0,0-0.1,0-0.1,0L687.6,4.7l1.9-0.1c1.6-0.1,3,1.1,3.1,2.7L707.7,176.8z"
	/>
<path class="st3" d="M69.3,7.7L47.5,184.4l-3.4-0.1c-2.3-0.1-4.1-2-4.1-4.3c0-0.2,0-0.3,0-0.5L64.9,11.2C65.2,9.1,67.2,7.5,69.3,7.7
	z"/>
<rect x="111.3" y="222.7" class="st3" width="18.4" height="16.7"/>
<polygon class="st3" points="195.1,396.4 195.1,401.3 149.4,402.5 149.4,396.4 "/>
<path class="st1" d="M275.7,228.5v164.9c0,2.1-1.7,3.8-3.7,3.9l-185.5,5h0c-2.1,0-3.8-1.7-3.8-3.9V228.5c0-2.1,1.7-3.8,3.8-3.9
	h185.5C273.9,224.6,275.6,226.4,275.7,228.5z"/>
<path class="st3" d="M86.4,224.6v177.6h0c-2.1,0-3.8-1.7-3.8-3.9V228.5C82.6,226.4,84.3,224.6,86.4,224.6L86.4,224.6z"/>
<polygon class="st5" points="94.9,235.1 266.7,235.1 266.7,380.5 94.9,384.4 "/>
<rect x="606.3" y="222.7" class="st3" width="18.4" height="17.1"/>
<polygon class="st3" points="609.4,396.4 609.4,402.7 563.7,401.4 563.7,396.4 "/>
<path class="st1" d="M669.6,228.5v169.9c0,2.1-1.8,3.9-3.9,3.9l0,0l-185.6-5c-2.1-0.1-3.7-1.8-3.7-3.9V228.5c0-2.1,1.7-3.8,3.8-3.9
	h185.5C667.9,224.6,669.6,226.3,669.6,228.5z"/>
<path class="st3" d="M669.6,228.5v169.9c0,2.1-1.8,3.9-3.9,3.9l0,0V224.6l0,0C667.9,224.6,669.6,226.3,669.6,228.5z"/>
<polygon class="st5" points="657.3,235.1 485.5,235.1 485.5,380.5 657.3,384.4 "/>
<path class="st1" d="M471.7,228.5v164.9c0,2.1-1.7,3.8-3.7,3.9l-185.5,5l0,0c-2.1,0-3.8-1.7-3.9-3.9V228.5c0-2.1,1.7-3.8,3.8-3.9
	h185.5C470,224.6,471.7,226.4,471.7,228.5z"/>
<polygon class="st5" points="290.9,235.1 462.7,235.1 462.7,380.5 290.9,384.4 "/>
<polygon class="st3" points="742,445.4 742,458.1 594.9,459.5 593.4,459.5 537.5,460.1 536.1,460.1 519.1,460.2 518.6,460.2 
	415.1,461.2 245.1,462.8 244.9,462.8 201.7,463.2 201.3,463.2 9.2,465 9.2,450.3 205.2,449 205.7,449 245.4,448.7 245.6,448.7 
	519.6,446.9 519.9,446.9 520,446.9 520.5,446.9 525.1,446.8 526.5,446.8 598.7,446.4 602.9,446.3 603.9,446.3 "/>
<ellipse class="st6" cx="378.2" cy="189.1" rx="49.7" ry="50.3"/>
<linearGradient id="SVGID_1_" gradientUnits="userSpaceOnUse" x1="487.703" y1="-164.8121" x2="487.703" y2="205.1703" gradientTransform="matrix(1 0 0 -1 -79.34 299.09)">
	<stop  offset="0" style="stop-color:#808080;stop-opacity:0.25"/>
	<stop  offset="0.54" style="stop-color:#808080;stop-opacity:0.12"/>
	<stop  offset="1" style="stop-color:#808080;stop-opacity:0.1"/>
</linearGradient>
<path class="st7" d="M201.2,463.6c0-0.1,0.1-0.2,0.1-0.3c1-3.5,2.7-9.5,4-14.2c0.2-0.6,0.3-1.2,0.5-1.7c1.4-5.4,4.2-17.9,5.7-25.7
	c0.5-2.8,1-4.9,1.1-6c0.2-1.7,3.1-8.7,6.4-16.9c2.3-5.7,4.8-12,6.7-17.3c1.2-3.1,2.2-6.4,2.8-9.7c0.1-0.7,0.1-1.4,0-2.1
	c-0.3-1.1-0.4-2.3-0.5-3.4l0,0c-0.2-6.1,1.6-15.7,4.3-19.7c3.4-4.9,5.8-23.2,5.8-23.2s5,0.7,5.8-3.5c0.1-0.5,0.1-0.9,0.1-1.4
	c0-0.4,0-0.7-0.1-1.1c-0.9-6.1,14.2-12.6,22.7-14c1-0.2,1.9-0.3,2.9-0.3c2.1-0.2,4.1-0.7,6.1-1.4c0.9-0.3,1.9-0.6,2.9-1
	c3.6-1.2,7.8-2.8,12.3-4.6c17-6.7,37.6-15.7,37.6-15.7c0.1-0.7,0.3-1.4,0.5-2c2.1-8.4,7.9-15.3,15.8-18.6l0,0c0-0.6,0-1.3,0-2
	c0-3.4-0.1-6.9-0.3-10.3c0-0.7-0.1-1.4-0.1-2c0-0.2,0-0.4,0-0.6c0-0.2,0-0.3,0-0.5c0-0.7-0.1-1.4-0.1-2l-0.2-0.1
	c-1.5-1.1-2.8-2.5-3.8-4.1c-0.6-0.9-1-1.9-1.4-2.9c-1.2-3.3-1.5-7-2.3-10.5l-0.2-0.7c-1.1-3.5-2.4-7-3.9-10.4
	c-2.1-5.3-3.8-10.8-5.4-16.3c-1-3.4-2-6.7-3-10.1l-1.5-5.1c-0.3-1-0.6-2-0.8-2.9l0,0c-0.1-0.5-0.2-0.9-0.3-1.4l0,0
	c-0.3-1.5-0.2-3.1,0.2-4.5c0.4-1,0.8-2,1.3-2.9c0.2-0.4,0.4-0.9,0.5-1.4l0,0c0-0.1,0.1-0.2,0.1-0.3c0.1-0.3,0.1-0.7,0.1-1.1
	c0-1.3-0.2-2.6-0.5-3.8c0,0,0,0,0,0c0-0.1,0-0.2,0-0.3c-0.2-1-0.3-2-0.3-2.9c-0.3-5.3,0.8-10.6,3.4-15.3l0.2-0.4
	c0.5-0.9,1.1-1.9,1.8-2.7l0,0c0.3-0.4,0.6-0.8,1-1.2c-1.4,1.3-3.6,0.7-4.8-0.7c-0.2-0.2-0.4-0.5-0.5-0.7c-0.1-0.1-0.2-0.3-0.2-0.4
	c0-0.1-0.1-0.2-0.1-0.4c-0.7-2.4,0.5-5,2.1-6.9c1.5-1.9,3.4-3.5,5.6-4.6l0,0c0.1-0.1,0.3-0.1,0.4-0.2c0.8-0.4,1.7-0.8,2.6-1l0,0
	c0.5-0.2,1-0.3,1.6-0.4l-3.6-0.3l-1.5-0.1c1.5-5.9,6.6-10.2,12.6-10.7h1c0.5,0,1,0.1,1.5,0.1c-1.6-0.7-2.7-2.4-2.6-4.2
	c2.5,2,5.7,3.1,8.9,3h0.4c-0.2-1.1-0.3-2.1-0.3-3.2l0,0l0,0l0,0c-0.1-1.5-0.1-2.9,0-4.4c1.8,1.7,4.2,2.5,6.6,2.2l-2-2.8
	c1.8,1.4,4.1,2.2,6.4,2l0.5,0c0.4,0,0.8-0.1,1.2-0.2h0.1c-0.2-0.2-0.3-0.5-0.5-0.7l-0.1-0.1c-0.4-0.6-0.7-1.3-1-2
	c-0.1-0.3-0.2-0.6-0.2-0.9l0,0c-0.4-1.8-0.3-3.7,0.4-5.3c3.1,2.6,6.6,6.3,10.6,3.5c4.1-2.7,4.2-7.8,10.6-7.2c3.6,0.3,6.7,2.6,8.1,6
	c1.9-2.1,4.8-2.8,7.4-1.7c2.5,1.2,4,3.9,3.8,6.8c2.7-0.7,5.5-1.3,8.1-0.3c2.6,1,4.2,4.3,2.7,6.5c0,0.1-0.1,0.1-0.1,0.2
	c-1.2,1.6-3.8,2.4-3.5,4.4l0.4,0.3l1.3,0.9l0,0c4.9,3.6,9.7,7.4,14.4,11.4c2.4,2,5,4.5,5.1,7.7c0,0.8,0,1.6-0.2,2.3l0,0
	c-0.2,0.8-0.4,1.5-0.5,2.3c-0.4,1.9-0.5,3.9-0.3,5.9l0,0c0.1,0.6,0.2,1.1,0.3,1.7c1.5,7.6,7.5,13.8,8.1,21.6v0.5
	c0,0.8,0,1.7-0.1,2.5c-0.4,4.7-2.6,9.2-4.3,13.7c-0.1,0.3-0.2,0.5-0.3,0.8c-3.4,8.8-5.3,18.2-6.8,27.6c-0.5,3.3-1.1,6.6-1.9,9.9
	c-0.9,3.7-2.6,7.2-4.9,10.2c-0.9,1.1-2,2.1-3.3,2.9c-0.8,0.5-1.7,1-2.6,1.4c0,0,0,0,0,0.1c0.1,0.6,0.2,1.2,0.3,1.8
	c0.1,0.3,0.1,0.6,0.2,1l0,0c0,0,0,0,0,0.1c0.8,4.6,1.7,9.2,2.7,13.5l0.5,2.1c12.2,4.5,13.6,13.6,13.7,17.1c0,0.5,0,0.9,0,1.4
	c0,0,18.4,0.5,25.7,5.9c1.4,0.9,2.8,1.7,4.4,2.3c2.9,1.1,5.9,2.1,9,2.8c1.6,0.4,3.2,0.8,4.8,1.2c2.9,0.7,6,1.3,9,2
	c7.9,1.6,15.4,2.9,19.2,3.9c9,2.3,29.7,22.4,29.7,22.4s2.4,20.2,4.8,23.2c2.4,3,6.8,13.3,6.8,13.3l16,28.8l6.8,12.1h4.4
	c0.6,0,1.8,0.9,3.1,2.1c1.2,1,2.4,2.3,3.6,3.5l1.9,2l1.2,1.3c0,0,7,0.2,8.9,5.8c5.7-0.2,12.8,0.2,17.7,2.5c0.7,0.3,1.3,0.7,1.9,1.1
	c2,1.2,3.5,3.2,4,5.5c0.1,0.5,0.2,0.9,0.2,1.4c0,0.6,0,1.1,0,1.7c-0.3,7.4-5.1,13.6-9.5,17.8l0.3,0.6c0,0-0.1,0.4-0.4,1
	c-0.1,0.2-0.2,0.4-0.3,0.6l0,0c-0.6,1.2-1.5,3.1-2.7,5.3c-2.5,4.7-5.6,9-9.3,12.9l-0.3,0.3l-55.9,0.5l-0.2-0.2l-10.8-13.1l-5.4-6.5
	l-0.2-0.2l-0.2,1.6l-0.5,5.2l-1.3,12.6L519,460v0.2l-0.1,1.5l0.1-1.5h-0.3l-103.6,1l-170,1.9v0.8h-0.1v-0.8l-43.3,0.5L201.2,463.6z"
	/>
<path class="st6" d="M427.9,292c0,0-96.3,11.8-87.1,0c3.3-4.3,4.2-16.9,4.1-31.2c-0.1-4.4-0.2-8.9-0.4-13.4
	c-1.1-21.6-3.6-42.6-3.6-42.6s84.2-40.2,74.5-8.3c-3.9,12.9-2.6,30.9,0.3,47.9c0.9,4.9,1.9,9.8,2.9,14.4
	C421.1,270,424.2,281.1,427.9,292z"/>
<path class="st3" d="M427.9,292c0,0-96.3,11.8-87.1,0c3.3-4.3,4.2-16.9,4.1-31.2c14.7-6.4,33.4-1.6,33.4-1.6
	c19.7-4,32.3-3.2,40.3-0.4C421.1,270,424.2,281.1,427.9,292z"/>
<path class="st4" d="M245.1,463.9v-0.8l170-1.9l103.6-1h0.3l-0.1,1.5l0.1-1.5h0.2v-0.2l1.3-13.2l0.5-5l0.2-1.6l0.1-1.3l6-20.2
	l6-20.2l5-17l7.7-26c0,0-4.4-10.3-6.8-13.2c-2.4-2.9-4.8-23-4.8-23s-20.7-19.9-29.7-22.2c-3.8-1-11.3-2.3-19.2-3.9c-3-0.6-6-1.3-9-2
	c-1.7-0.4-3.3-0.8-4.8-1.2c-3-0.8-6-1.7-9-2.8c-1.5-0.6-3-1.3-4.4-2.2c-7.1-5.3-24.9-5.9-25.6-5.9l0,0c0,0,0,0,0-0.1v-0.1
	c0-0.4,0-0.8,0-1.2c0-0.4,0-0.9-0.1-1.4c0-0.2,0-0.3-0.1-0.5c0-0.4-0.1-0.7-0.2-1.1c0-0.2-0.1-0.3-0.1-0.5c-0.3-1.2-0.7-2.3-1.2-3.4
	c-0.1-0.2-0.2-0.3-0.2-0.5c-0.5-0.9-1-1.8-1.6-2.6c-0.1-0.2-0.3-0.3-0.4-0.5c-0.8-0.9-1.7-1.8-2.6-2.6c-0.3-0.2-0.5-0.4-0.8-0.6
	c-0.2-0.1-0.3-0.2-0.5-0.4l-0.9-0.6l-0.8-0.5c-0.7-0.4-1.5-0.8-2.3-1.1c-0.3-0.1-0.5-0.2-0.8-0.3c-0.3-0.1-0.7-0.3-1.1-0.4H419
	l-0.7-0.3c-0.6-0.2-1.1-0.4-1.7-0.5l-0.9-0.2l-1-0.2l-1-0.2c-1-0.2-2-0.4-3.1-0.5l-1.1-0.1l-1.1-0.1l-1.2-0.1l-1.7-0.1l-1.9-0.1
	c-8.5,0-17.1,0.9-25.4,2.7c-5.8-1.3-11.7-1.9-17.7-1.6h-0.8l-1,0.1h-0.6l-1.2,0.1c-0.4,0-0.8,0.1-1.3,0.1s-0.9,0.1-1.3,0.2l-0.6,0.1
	c-0.6,0.1-1.3,0.2-1.9,0.4c-0.2,0-0.4,0.1-0.6,0.1c-0.8,0.2-1.7,0.4-2.5,0.7c-0.4,0.1-0.8,0.3-1.2,0.4c-0.2,0.1-0.4,0.1-0.6,0.2
	l-0.6,0.2l-0.6,0.2l-0.7,0.3c-0.4,0.2-0.7,0.3-1.1,0.5c-0.2,0.1-0.4,0.2-0.6,0.3c-0.2,0.1-0.4,0.2-0.6,0.3c-2.2,1.1-4.2,2.6-6,4.3
	l-0.5,0.5l-0.5,0.5c-0.2,0.2-0.3,0.3-0.5,0.5c-0.6,0.7-1.2,1.4-1.8,2.2c-0.2,0.2-0.3,0.4-0.4,0.6c-0.6,0.9-1.2,1.9-1.7,2.9
	c-0.1,0.2-0.2,0.5-0.4,0.7c-0.8,1.7-1.4,3.4-1.9,5.1c-0.2,0.7-0.3,1.3-0.5,2c-0.2,1-20.5,9.2-37.5,15.8c-4.5,1.8-8.8,3.4-12.3,4.6
	c-1,0.4-2,0.7-2.9,1c-2,0.7-4,1.2-6.1,1.4c-1,0-1.9,0.1-2.9,0.3c-7.8,1.3-21.2,6.9-22.7,12.5c-0.1,0.4-0.2,0.9-0.1,1.4
	c0,0,0,0.1,0,0.1c1,6.9-5.8,5.9-5.8,5.9s-2.4,18.1-5.8,23c-2.4,3.5-4.1,11.4-4.3,17.3l0,0c-0.1,1.9,0,3.7,0.4,5.5c0,0,0,0.1,0,0.1
	c0.4,1.3-0.5,4.9-2.1,9.5c-1.7,5-4.2,11.3-6.6,17.2c-3.6,8.9-7,17.1-7.2,18.8c-0.1,0.8-0.3,2.2-0.7,4c-1.4,7.5-4.5,21.7-6.1,27.4
	c-1.2,4.3-2.8,10.2-4,14.2c0,0.1-0.1,0.2-0.1,0.3l43.4-0.4L245.1,463.9L245.1,463.9L245.1,463.9z"/>
<path class="st3" d="M260.9,348.4c0,0,55.2,28.9,75,25.5L260.9,348.4z"/>
<path class="st3" d="M373.2,336.6c0,0,53.7,17.6,71.6,20.1C462.7,359.1,373.2,336.6,373.2,336.6z"/>
<path class="st3" d="M432.8,279.8c-28.1,5.2-80.9,4.1-103.8,3.3c8.4-30.4,49.2-20.1,49.2-20.1C428.7,252.9,432.6,274.1,432.8,279.8z
	"/>
<path class="st4" d="M432.8,277.9c-28.1,5.2-80.9,4.1-103.8,3.3c8.4-30.4,49.2-20.1,49.2-20.1C428.7,250.9,432.6,272.1,432.8,277.9z
	"/>
<path class="st6" d="M581.8,411.8c0,0,33.1-5.1,33.7,9.6c0.6,14.7-16.9,25-16.9,25L581.8,411.8z"/>
<path class="st3" d="M415.6,244.3c-1.4,0.6-2.9,1.2-4.4,1.7c-10.4,3.6-21,7.3-31.9,8.7c-11,1.3-22.5,0.2-32.1-5.4
	c-1-0.6-2-1.2-2.9-1.9c-1.1-21.6-3.6-42.6-3.6-42.6s84.2-40.2,74.5-8.3C411.4,209.3,412.7,227.4,415.6,244.3z"/>
<path class="st0" d="M364.5,110.4c-2.8,0.7-5.8,0.1-8.1-1.7l2,2.8c-2.4,0.3-4.8-0.5-6.6-2.2c-0.2,2.5-0.1,5.1,0.3,7.6
	c-3.3,0.2-6.6-0.9-9.3-2.9c-0.1,1.8,0.9,3.5,2.6,4.2c-6.9-0.8-13.4,3.7-15.1,10.5l5.1,0.5c-4,0.9-7.5,3.1-10.1,6.2
	c-1.5,2-2.7,4.5-2.1,6.9s3.9,3.9,5.7,2.2c-5.1,6.2-7.3,14.4-5.9,22.3c0.5,1.7,0.6,3.4,0.4,5.2c-0.3,1.6-1.3,3-1.8,4.6
	c-1,2.9,0,6,0.8,8.8l4.5,15.1c1.6,5.5,3.3,10.9,5.4,16.2c1.5,3.3,2.8,6.8,3.9,10.3c1.2,4.7,1.3,9.9,3.9,14.1c1.8,2.6,4.2,4.7,7,6.2
	c9.6,5.5,21.1,6.7,32.1,5.4s21.5-5,31.9-8.7c2.3-0.7,4.5-1.7,6.6-2.9c7.2-4.8,8.8-14.6,10.2-23.2c1.5-9.6,3.5-19.2,7.1-28.2
	c2.1-5.4,4.8-10.8,4.4-16.6c-0.6-7.7-6.6-13.9-8.1-21.4c-0.5-2.5-0.5-5.1,0.1-7.6c0.5-1.5,0.7-3,0.8-4.6c-0.2-3.2-2.7-5.6-5.1-7.6
	c-5.2-4.4-10.6-8.6-16.1-12.5c-0.3-2,2.4-2.8,3.5-4.4c1.7-2.2-0.1-5.7-2.6-6.7c-2.6-1-5.4-0.4-8.1,0.3c0.4-3.5-2-6.8-5.5-7.2
	c-2.1-0.3-4.3,0.6-5.7,2.2c-1.4-3.3-4.6-5.6-8.2-6c-6.4-0.5-6.5,4.5-10.6,7.2c-4.1,2.7-7.5-0.9-10.6-3.5
	C362,104.5,362.6,107.9,364.5,110.4z"/>
<path class="st4" d="M606.3,441.2c0,0-0.9,2.1-2.4,5.1c-2.4,4.6-5.3,9-8.7,12.9l-0.3,0.3h-1.6l-55.9,0.5h-1.3l-0.2-0.2l-10.8-13
	l-4.1-4.9l-0.2-0.2l-0.3-0.4l-0.2-0.2l-0.3-0.3l-7.9-9.5L515,419l4.9-20.6l0.1-0.5l1-3.9l0.7-2.9l2.3-9.6l7.9-33l14,7.4l14.8,26.5
	l7.9,14.2h4.4c0.8,0,2.7,1.6,4.6,3.5c0.7,0.7,1.4,1.4,1.9,2c1.7,1.8,3.1,3.4,3.1,3.4s7.1,0.2,9,5.8c0.1,0.3,0.2,0.6,0.2,0.8
	c0.6,2.2,1.4,4.4,2.4,6.4c1.2,2.8,2.8,5.9,4.4,9c3,5.7,6,11.2,7.1,13.2l0.1,0.2L606.3,441.2z"/>
<path class="st3" d="M523.2,397l-0.1,1.4v0.1l-0.2,2.3l-1.3,18.1l-1.6,21.9l-0.4,6.2l-1,13.2v0.2l-103.6,1l-170,1.9v0.8h-0.1v-0.8
	v-0.3l0.4-14.1l0.8-27.5l0.7-23.3l0.1-2.3c0.2-5.7,4.9-10.2,10.5-10c0.2,0,0.4,0,0.6,0c4.6,0.4,10.5,0.9,17.6,1.4l2.9,0.2
	c41,2.9,116.7,6.6,193.1,2c1.6-0.1,3.2-0.2,4.8-0.3c11.8-0.8,23.7-1.7,35.4-2.9c5.6-0.6,10.6,3.5,11.2,9.2
	C523.2,395.7,523.2,396.3,523.2,397L523.2,397z"/>
<path class="st0" d="M245.1,463.9v-0.8l170-1.9l103.6-1h0.3v-0.2l1-13.2l0.4-5.9l1.6-22.2l1.2-17.5v-0.4c0.1-0.8,0-1.6-0.1-2.4
	c0,0,0-0.1,0-0.1c-0.3-1.7-0.9-3.2-1.9-4.5c-2.2-2.8-5.6-4.3-9.1-3.9c-11.7,1.2-23.6,2.2-35.4,2.9c-1.6,0.1-3.2,0.2-4.8,0.3
	c-76.4,4.6-152.1,0.9-193.1-2l-2.9-0.2c-7.1-0.5-13-1-17.6-1.4c-5.2-0.4-9.9,3.2-10.9,8.4c-0.1,0.5-0.2,1.1-0.2,1.6l-0.7,21.7
	l-0.9,27.5l-0.4,14.1v0.3L245.1,463.9L245.1,463.9z"/>
<path class="st3" d="M523.4,403.9l-1.2,15l-1.8,22.4l-0.4,5.6l-1,12.6l-0.1,0.6v0.2l0,0l-0.1,1.5l0.1-1.5h-0.3l-103.6,1l-170,1.9
	v-0.3l0.5-14.1l1-27.5l0.6-18.3c0.1-2.1,1.2-4.1,3-5.1c1.1-0.7,2.4-1,3.7-0.9c2,0.2,4.5,0.4,7.4,0.6c4.7,0.4,10.6,0.8,17.4,1.2
	c12.6,0.8,28.4,1.7,46.5,2.4c50.3,2,118.3,2.6,182.8-3.1c2.9-0.3,5.9-0.5,8.8-0.8c1.2-0.1,2.3,0.1,3.4,0.6c0.3,0.1,0.6,0.3,0.8,0.5
	c0.8,0.6,1.5,1.4,1.9,2.4c0.1,0.2,0.2,0.4,0.2,0.6C523.4,402.1,523.5,403,523.4,403.9z"/>
<path class="st3" d="M195.1,417.3v3.1c0,2.3-1.3,4.4-3.4,5.4l-38.8,0.8c-2.1-1-3.5-3.1-3.5-5.5v-2.9L195.1,417.3z"/>
<polygon class="st0" points="195.5,427.7 145,428.7 145,420.2 195.5,419.2 "/>
<polygon class="st3" points="195.5,427.7 145,428.7 145,420.2 195.5,419.2 "/>
<polygon class="st0" points="197.5,427.7 146.9,428.7 146.9,420.2 197.5,419.2 "/>
<g class="st8">
	<path d="M364.9,107.2c-0.9-1.2-1.6-2.7-1.8-4.3c-0.2,1.5-0.1,3.1,0.4,4.5C364,107.4,364.5,107.4,364.9,107.2z"/>
	<path d="M352.6,113.7c-0.2-1.2-0.3-2.4-0.4-3.6c0,1.2,0,2.4,0,3.6L352.6,113.7z"/>
	<path d="M431.5,146.4c0.1-0.9,0.2-1.7,0.3-2.6c0.5-1.5,0.7-3,0.8-4.6c0-0.4-0.1-0.7-0.2-1c-0.2,0.9-0.4,1.8-0.6,2.7
		C431.5,142.7,431.4,144.6,431.5,146.4z"/>
	<path d="M411.4,116.2l1.1,0.8c0.9-0.7,1.7-1.4,2.5-2.2c0.7-1,0.9-2.4,0.4-3.6c-0.1,0.2-0.2,0.4-0.4,0.6
		C413.8,113.4,411.1,114.2,411.4,116.2z"/>
	<path d="M331.9,125.6c-0.4,0.7-0.6,1.5-0.8,2.2c1.5-0.9,3.1-1.5,4.8-1.9L331.9,125.6z"/>
	<path d="M345.2,114.9c-0.6-0.4-1.2-0.8-1.8-1.2c0,0.4,0,0.8,0.1,1.2C344.1,114.8,344.6,114.9,345.2,114.9z"/>
	<path d="M439.9,172.7c-0.4,4.8-2.6,9.3-4.4,13.8c-3.6,9-5.6,18.6-7.1,28.2c-1.3,8.6-2.9,18.4-10.2,23.2c-2.1,1.3-4.3,2.2-6.6,2.9
		c-10.4,3.7-21,7.3-31.9,8.7c-11,1.3-22.5,0.2-32.1-5.4c-2.8-1.5-5.2-3.6-7-6.2c-2.6-4.1-2.6-9.3-3.9-14.1c-1.1-3.5-2.4-7-3.9-10.3
		c-2.1-5.3-3.8-10.8-5.4-16.2c-1.5-5-3-10.1-4.5-15.1c-0.5-1.5-0.9-3.1-1.1-4.7c-0.4,2.5,0.4,5.1,1.1,7.6c1.5,5.1,3,10.1,4.5,15.1
		c1.6,5.5,3.3,10.9,5.4,16.2c1.5,3.3,2.8,6.8,3.9,10.3c1.2,4.7,1.3,9.9,3.9,14.1c1.8,2.6,4.2,4.7,7,6.2c9.6,5.5,21.1,6.7,32.1,5.4
		c11-1.3,21.5-5,31.9-8.7c2.3-0.7,4.5-1.7,6.6-2.9c7.2-4.8,8.8-14.6,10.2-23.2c1.5-9.6,3.5-19.2,7.1-28.2c2.1-5.4,4.8-10.8,4.4-16.6
		C439.9,172.8,439.9,172.7,439.9,172.7z"/>
	<path d="M324,168.9c0,0,0-0.1,0-0.1c0.2-1.7,0-3.5-0.4-5.1c-0.2-1.1-0.3-2.2-0.4-3.3c-0.1,2.1,0,4.2,0.4,6.2
		C323.7,167.3,323.9,168.1,324,168.9z"/>
	<path d="M326.9,144.9c0.7-1.3,1.6-2.5,2.5-3.6c-1.8,1.7-5,0.2-5.7-2.2c-0.3,1-0.3,2,0,2.9C324.2,143.5,325.5,144.6,326.9,144.9z"/>
</g>
<path class="st3" d="M568.7,396.4c0,0,3.1,11.3,0,21.1S568.7,396.4,568.7,396.4z"/>
<path class="st3" d="M581.8,407.9c0,0,1.3,14.3-1.6,16.8C577.3,427.3,581.8,407.9,581.8,407.9z"/>
<line class="st9" x1="99.1" y1="258.4" x2="197.5" y2="257.4"/>
<line class="st9" x1="99.1" y1="270.6" x2="197.5" y2="269.6"/>
<line class="st9" x1="99.1" y1="282.8" x2="197.5" y2="281.9"/>
</svg>
